<?xml version="1.0" encoding="UTF-8" standalone="no"?>
<!DOCTYPE svg PUBLIC "-//W3C//DTD SVG 1.1//EN"
 "http://www.w3.org/Graphics/SVG/1.1/DTD/svg11.dtd">
<!-- Generated by graphviz version 2.40.1 (20161225.0304)
 -->
<!-- Title: dependencies Pages: 1 -->
<svg width="3127pt" height="284pt"
 viewBox="0.00 0.00 3127.00 284.00" xmlns="http://www.w3.org/2000/svg" xmlns:xlink="http://www.w3.org/1999/xlink">
<g id="graph0" class="graph" transform="scale(1 1) rotate(0) translate(4 280)">
<title>dependencies</title>
<polygon fill="#ffffff" stroke="transparent" points="-4,4 -4,-280 3123,-280 3123,4 -4,4"/>
<text text-anchor="start" x="1538.5091" y="-42.4" font-family="sans-serif" font-weight="bold" font-size="14.00" fill="#000000">Legend</text>
<polygon fill="#ffffb3" stroke="transparent" points="1325.5,-10 1325.5,-30 1345.5,-30 1345.5,-10 1325.5,-10"/>
<text text-anchor="start" x="1349.129" y="-15.4" font-family="sans-serif" font-size="14.00" fill="#000000"> &#160;Declarations</text>
<polygon fill="#8dd3c7" stroke="transparent" points="1438.5,-10 1438.5,-30 1458.5,-30 1458.5,-10 1438.5,-10"/>
<text text-anchor="start" x="1462.2251" y="-15.4" font-family="sans-serif" font-size="14.00" fill="#000000"> &#160;Module</text>
<polygon fill="#80b1d3" stroke="transparent" points="1524.5,-10 1524.5,-30 1544.5,-30 1544.5,-10 1524.5,-10"/>
<text text-anchor="start" x="1548.2812" y="-15.4" font-family="sans-serif" font-size="14.00" fill="#000000"> &#160;Bootstrap</text>
<polygon fill="#fdb462" stroke="transparent" points="1621.5,-10 1621.5,-30 1641.5,-30 1641.5,-10 1621.5,-10"/>
<text text-anchor="start" x="1645.1732" y="-15.4" font-family="sans-serif" font-size="14.00" fill="#000000"> &#160;Providers</text>
<polygon fill="#fb8072" stroke="transparent" points="1717.5,-10 1717.5,-30 1737.5,-30 1737.5,-10 1717.5,-10"/>
<text text-anchor="start" x="1741.2258" y="-15.4" font-family="sans-serif" font-size="14.00" fill="#000000"> &#160;Exports</text>
<g id="clust1" class="cluster">
<title>cluster_NgxChatModule</title>
<polygon fill="none" stroke="#000000" stroke-dasharray="1,5" points="8,-70 8,-268 3111,-268 3111,-70 8,-70"/>
</g>
<g id="clust2" class="cluster">
<title>cluster_NgxChatModule_declarations</title>
<polygon fill="none" stroke="#000000" points="16,-78 16,-130 3103,-130 3103,-78 16,-78"/>
</g>
<g id="clust21" class="cluster">
<title>cluster_NgxChatModule_exports</title>
<polygon fill="none" stroke="#000000" points="1032,-208 1032,-260 2061,-260 2061,-208 1032,-208"/>
</g>
<!-- ChatAvatarComponent -->
<g id="node1" class="node">
<title>ChatAvatarComponent</title>
<polygon fill="#ffffb3" stroke="#000000" points="3094.8613,-122 2949.1387,-122 2949.1387,-86 3094.8613,-86 3094.8613,-122"/>
<text text-anchor="middle" x="3022" y="-99.8" font-family="Times,serif" font-size="14.00" fill="#000000">ChatAvatarComponent</text>
</g>
<!-- NgxChatModule -->
<g id="node18" class="node">
<title>NgxChatModule</title>
<polygon fill="#8dd3c7" stroke="#000000" points="1574.0982,-187 1571.0982,-191 1550.0982,-191 1547.0982,-187 1463.9018,-187 1463.9018,-151 1574.0982,-151 1574.0982,-187"/>
<text text-anchor="middle" x="1519" y="-164.8" font-family="Times,serif" font-size="14.00" fill="#000000">NgxChatModule</text>
</g>
<!-- ChatAvatarComponent&#45;&gt;NgxChatModule -->
<g id="edge1" class="edge">
<title>ChatAvatarComponent&#45;&gt;NgxChatModule</title>
<path fill="none" stroke="#000000" d="M3022,-122.2921C3022,-144.2057 3022,-178 3022,-178 3022,-178 1584.2751,-178 1584.2751,-178"/>
<polygon fill="#000000" stroke="#000000" points="1584.2751,-174.5001 1574.2751,-178 1584.275,-181.5001 1584.2751,-174.5001"/>
</g>
<!-- ChatComponent -->
<g id="node2" class="node">
<title>ChatComponent</title>
<polygon fill="#ffffb3" stroke="#000000" points="2930.7744,-122 2823.2256,-122 2823.2256,-86 2930.7744,-86 2930.7744,-122"/>
<text text-anchor="middle" x="2877" y="-99.8" font-family="Times,serif" font-size="14.00" fill="#000000">ChatComponent</text>
</g>
<!-- ChatComponent&#45;&gt;NgxChatModule -->
<g id="edge2" class="edge">
<title>ChatComponent&#45;&gt;NgxChatModule</title>
<path fill="none" stroke="#000000" d="M2877,-122.0267C2877,-142.7672 2877,-174 2877,-174 2877,-174 1584.3413,-174 1584.3413,-174"/>
<polygon fill="#000000" stroke="#000000" points="1584.3414,-170.5001 1574.3413,-174 1584.3413,-177.5001 1584.3414,-170.5001"/>
</g>
<!-- ChatMessageComponent -->
<g id="node3" class="node">
<title>ChatMessageComponent</title>
<polygon fill="#ffffb3" stroke="#000000" points="2805.252,-122 2648.748,-122 2648.748,-86 2805.252,-86 2805.252,-122"/>
<text text-anchor="middle" x="2727" y="-99.8" font-family="Times,serif" font-size="14.00" fill="#000000">ChatMessageComponent</text>
</g>
<!-- ChatMessageComponent&#45;&gt;NgxChatModule -->
<g id="edge3" class="edge">
<title>ChatMessageComponent&#45;&gt;NgxChatModule</title>
<path fill="none" stroke="#000000" d="M2727,-122.308C2727,-142.1455 2727,-171 2727,-171 2727,-171 1584.4423,-171 1584.4423,-171"/>
<polygon fill="#000000" stroke="#000000" points="1584.4423,-167.5001 1574.4423,-171 1584.4423,-174.5001 1584.4423,-167.5001"/>
</g>
<!-- ChatMessageInputComponent -->
<g id="node4" class="node">
<title>ChatMessageInputComponent</title>
<polygon fill="#ffffb3" stroke="#000000" points="2630.3032,-122 2443.6968,-122 2443.6968,-86 2630.3032,-86 2630.3032,-122"/>
<text text-anchor="middle" x="2537" y="-99.8" font-family="Times,serif" font-size="14.00" fill="#000000">ChatMessageInputComponent</text>
</g>
<!-- ChatMessageInputComponent&#45;&gt;NgxChatModule -->
<g id="edge4" class="edge">
<title>ChatMessageInputComponent&#45;&gt;NgxChatModule</title>
<path fill="none" stroke="#000000" d="M2537,-122.1686C2537,-141.0898 2537,-168 2537,-168 2537,-168 1584.093,-168 1584.093,-168"/>
<polygon fill="#000000" stroke="#000000" points="1584.0931,-164.5001 1574.093,-168 1584.093,-171.5001 1584.0931,-164.5001"/>
</g>
<!-- ChatMessageLinkComponent -->
<g id="node5" class="node">
<title>ChatMessageLinkComponent</title>
<polygon fill="#ffffb3" stroke="#000000" points="2425.6951,-122 2242.3049,-122 2242.3049,-86 2425.6951,-86 2425.6951,-122"/>
<text text-anchor="middle" x="2334" y="-99.8" font-family="Times,serif" font-size="14.00" fill="#000000">ChatMessageLinkComponent</text>
</g>
<!-- ChatMessageLinkComponent&#45;&gt;NgxChatModule -->
<g id="edge5" class="edge">
<title>ChatMessageLinkComponent&#45;&gt;NgxChatModule</title>
<path fill="none" stroke="#000000" d="M2334,-122.302C2334,-140.2699 2334,-165 2334,-165 2334,-165 1584.0583,-165 1584.0583,-165"/>
<polygon fill="#000000" stroke="#000000" points="1584.0584,-161.5001 1574.0583,-165 1584.0583,-168.5001 1584.0584,-161.5001"/>
</g>
<!-- ChatMessageListComponent -->
<g id="node6" class="node">
<title>ChatMessageListComponent</title>
<polygon fill="#ffffb3" stroke="#000000" points="2224.0308,-122 2045.9692,-122 2045.9692,-86 2224.0308,-86 2224.0308,-122"/>
<text text-anchor="middle" x="2135" y="-99.8" font-family="Times,serif" font-size="14.00" fill="#000000">ChatMessageListComponent</text>
</g>
<!-- ChatMessageListComponent&#45;&gt;NgxChatModule -->
<g id="edge6" class="edge">
<title>ChatMessageListComponent&#45;&gt;NgxChatModule</title>
<path fill="none" stroke="#000000" d="M2138.4511,-122.0352C2138.4511,-138.7344 2138.4511,-161 2138.4511,-161 2138.4511,-161 1584.2444,-161 1584.2444,-161"/>
<polygon fill="#000000" stroke="#000000" points="1584.2445,-157.5001 1574.2444,-161 1584.2444,-164.5001 1584.2445,-157.5001"/>
</g>
<!-- ChatMessageSimpleComponent -->
<g id="node7" class="node">
<title>ChatMessageSimpleComponent</title>
<polygon fill="#ffffb3" stroke="#000000" points="2028.4213,-122 1831.5787,-122 1831.5787,-86 2028.4213,-86 2028.4213,-122"/>
<text text-anchor="middle" x="1930" y="-99.8" font-family="Times,serif" font-size="14.00" fill="#000000">ChatMessageSimpleComponent</text>
</g>
<!-- ChatMessageSimpleComponent&#45;&gt;NgxChatModule -->
<g id="edge7" class="edge">
<title>ChatMessageSimpleComponent&#45;&gt;NgxChatModule</title>
<path fill="none" stroke="#000000" d="M1877.3456,-122.2819C1877.3456,-137.9478 1877.3456,-158 1877.3456,-158 1877.3456,-158 1584.2062,-158 1584.2062,-158"/>
<polygon fill="#000000" stroke="#000000" points="1584.2062,-154.5001 1574.2062,-158 1584.2061,-161.5001 1584.2062,-154.5001"/>
</g>
<!-- ChatMessageTextComponent -->
<g id="node8" class="node">
<title>ChatMessageTextComponent</title>
<polygon fill="#ffffb3" stroke="#000000" points="1814.4101,-122 1631.5899,-122 1631.5899,-86 1814.4101,-86 1814.4101,-122"/>
<text text-anchor="middle" x="1723" y="-99.8" font-family="Times,serif" font-size="14.00" fill="#000000">ChatMessageTextComponent</text>
</g>
<!-- ChatMessageTextComponent&#45;&gt;NgxChatModule -->
<g id="edge8" class="edge">
<title>ChatMessageTextComponent&#45;&gt;NgxChatModule</title>
<path fill="none" stroke="#000000" d="M1673.4052,-122.1243C1673.4052,-136.7832 1673.4052,-155 1673.4052,-155 1673.4052,-155 1584.3077,-155 1584.3077,-155"/>
<polygon fill="#000000" stroke="#000000" points="1584.3077,-151.5001 1574.3077,-155 1584.3076,-158.5001 1584.3077,-151.5001"/>
</g>
<!-- ChatVideoWindowComponent -->
<g id="node9" class="node">
<title>ChatVideoWindowComponent</title>
<polygon fill="#ffffb3" stroke="#000000" points="1614.1979,-122 1423.8021,-122 1423.8021,-86 1614.1979,-86 1614.1979,-122"/>
<text text-anchor="middle" x="1519" y="-99.8" font-family="Times,serif" font-size="14.00" fill="#000000">ChatVideoWindowComponent</text>
</g>
<!-- ChatVideoWindowComponent&#45;&gt;NgxChatModule -->
<g id="edge9" class="edge">
<title>ChatVideoWindowComponent&#45;&gt;NgxChatModule</title>
<path fill="none" stroke="#000000" d="M1519,-122.1061C1519,-122.1061 1519,-140.991 1519,-140.991"/>
<polygon fill="#000000" stroke="#000000" points="1515.5001,-140.9909 1519,-150.991 1522.5001,-140.991 1515.5001,-140.9909"/>
</g>
<!-- ChatWindowComponent -->
<g id="node10" class="node">
<title>ChatWindowComponent</title>
<polygon fill="#ffffb3" stroke="#000000" points="1405.986,-122 1250.014,-122 1250.014,-86 1405.986,-86 1405.986,-122"/>
<text text-anchor="middle" x="1328" y="-99.8" font-family="Times,serif" font-size="14.00" fill="#000000">ChatWindowComponent</text>
</g>
<!-- ChatWindowComponent&#45;&gt;NgxChatModule -->
<g id="edge10" class="edge">
<title>ChatWindowComponent&#45;&gt;NgxChatModule</title>
<path fill="none" stroke="#000000" d="M1360.5163,-122.1243C1360.5163,-136.7832 1360.5163,-155 1360.5163,-155 1360.5163,-155 1453.5701,-155 1453.5701,-155"/>
<polygon fill="#000000" stroke="#000000" points="1453.5701,-158.5001 1463.5701,-155 1453.5701,-151.5001 1453.5701,-158.5001"/>
</g>
<!-- ChatWindowFrameComponent -->
<g id="node11" class="node">
<title>ChatWindowFrameComponent</title>
<polygon fill="#ffffb3" stroke="#000000" points="1231.7492,-122 1040.2508,-122 1040.2508,-86 1231.7492,-86 1231.7492,-122"/>
<text text-anchor="middle" x="1136" y="-99.8" font-family="Times,serif" font-size="14.00" fill="#000000">ChatWindowFrameComponent</text>
</g>
<!-- ChatWindowFrameComponent&#45;&gt;NgxChatModule -->
<g id="edge11" class="edge">
<title>ChatWindowFrameComponent&#45;&gt;NgxChatModule</title>
<path fill="none" stroke="#000000" d="M1196.5927,-122.2819C1196.5927,-137.9478 1196.5927,-158 1196.5927,-158 1196.5927,-158 1453.9425,-158 1453.9425,-158"/>
<polygon fill="#000000" stroke="#000000" points="1453.9426,-161.5001 1463.9425,-158 1453.9425,-154.5001 1453.9426,-161.5001"/>
</g>
<!-- ChatWindowListComponent -->
<g id="node12" class="node">
<title>ChatWindowListComponent</title>
<polygon fill="#ffffb3" stroke="#000000" points="1021.7646,-122 844.2354,-122 844.2354,-86 1021.7646,-86 1021.7646,-122"/>
<text text-anchor="middle" x="933" y="-99.8" font-family="Times,serif" font-size="14.00" fill="#000000">ChatWindowListComponent</text>
</g>
<!-- ChatWindowListComponent&#45;&gt;NgxChatModule -->
<g id="edge12" class="edge">
<title>ChatWindowListComponent&#45;&gt;NgxChatModule</title>
<path fill="none" stroke="#000000" d="M933,-122.0352C933,-138.7344 933,-161 933,-161 933,-161 1453.8705,-161 1453.8705,-161"/>
<polygon fill="#000000" stroke="#000000" points="1453.8706,-164.5001 1463.8705,-161 1453.8705,-157.5001 1453.8706,-164.5001"/>
</g>
<!-- FileDropComponent -->
<g id="node13" class="node">
<title>FileDropComponent</title>
<polygon fill="#ffffb3" stroke="#000000" points="825.8781,-122 694.1219,-122 694.1219,-86 825.8781,-86 825.8781,-122"/>
<text text-anchor="middle" x="760" y="-99.8" font-family="Times,serif" font-size="14.00" fill="#000000">FileDropComponent</text>
</g>
<!-- FileDropComponent&#45;&gt;NgxChatModule -->
<g id="edge13" class="edge">
<title>FileDropComponent&#45;&gt;NgxChatModule</title>
<path fill="none" stroke="#000000" d="M760,-122.302C760,-140.2699 760,-165 760,-165 760,-165 1453.8032,-165 1453.8032,-165"/>
<polygon fill="#000000" stroke="#000000" points="1453.8032,-168.5001 1463.8032,-165 1453.8032,-161.5001 1453.8032,-168.5001"/>
</g>
<!-- IntersectionObserverDirective -->
<g id="node14" class="node">
<title>IntersectionObserverDirective</title>
<polygon fill="#ffffb3" stroke="#000000" points="675.9664,-122 490.0336,-122 490.0336,-86 675.9664,-86 675.9664,-122"/>
<text text-anchor="middle" x="583" y="-99.8" font-family="Times,serif" font-size="14.00" fill="#000000">IntersectionObserverDirective</text>
</g>
<!-- IntersectionObserverDirective&#45;&gt;NgxChatModule -->
<g id="edge14" class="edge">
<title>IntersectionObserverDirective&#45;&gt;NgxChatModule</title>
<path fill="none" stroke="#000000" d="M583,-122.1686C583,-141.0898 583,-168 583,-168 583,-168 1453.9434,-168 1453.9434,-168"/>
<polygon fill="#000000" stroke="#000000" points="1453.9434,-171.5001 1463.9434,-168 1453.9433,-164.5001 1453.9434,-171.5001"/>
</g>
<!-- LinksDirective -->
<g id="node15" class="node">
<title>LinksDirective</title>
<polygon fill="#ffffb3" stroke="#000000" points="471.9706,-122 372.0294,-122 372.0294,-86 471.9706,-86 471.9706,-122"/>
<text text-anchor="middle" x="422" y="-99.8" font-family="Times,serif" font-size="14.00" fill="#000000">LinksDirective</text>
</g>
<!-- LinksDirective&#45;&gt;NgxChatModule -->
<g id="edge15" class="edge">
<title>LinksDirective&#45;&gt;NgxChatModule</title>
<path fill="none" stroke="#000000" d="M422,-122.308C422,-142.1455 422,-171 422,-171 422,-171 1453.8478,-171 1453.8478,-171"/>
<polygon fill="#000000" stroke="#000000" points="1453.8478,-174.5001 1463.8478,-171 1453.8478,-167.5001 1453.8478,-174.5001"/>
</g>
<!-- RosterListComponent -->
<g id="node16" class="node">
<title>RosterListComponent</title>
<polygon fill="#ffffb3" stroke="#000000" points="353.6582,-122 214.3418,-122 214.3418,-86 353.6582,-86 353.6582,-122"/>
<text text-anchor="middle" x="284" y="-99.8" font-family="Times,serif" font-size="14.00" fill="#000000">RosterListComponent</text>
</g>
<!-- RosterListComponent&#45;&gt;NgxChatModule -->
<g id="edge16" class="edge">
<title>RosterListComponent&#45;&gt;NgxChatModule</title>
<path fill="none" stroke="#000000" d="M284,-122.0267C284,-142.7672 284,-174 284,-174 284,-174 1453.9384,-174 1453.9384,-174"/>
<polygon fill="#000000" stroke="#000000" points="1453.9384,-177.5001 1463.9384,-174 1453.9383,-170.5001 1453.9384,-177.5001"/>
</g>
<!-- RosterRecipientComponent -->
<g id="node17" class="node">
<title>RosterRecipientComponent</title>
<polygon fill="#ffffb3" stroke="#000000" points="195.5322,-122 24.4678,-122 24.4678,-86 195.5322,-86 195.5322,-122"/>
<text text-anchor="middle" x="110" y="-99.8" font-family="Times,serif" font-size="14.00" fill="#000000">RosterRecipientComponent</text>
</g>
<!-- RosterRecipientComponent&#45;&gt;NgxChatModule -->
<g id="edge17" class="edge">
<title>RosterRecipientComponent&#45;&gt;NgxChatModule</title>
<path fill="none" stroke="#000000" d="M110,-122.2921C110,-144.2057 110,-178 110,-178 110,-178 1453.7655,-178 1453.7655,-178"/>
<polygon fill="#000000" stroke="#000000" points="1453.7656,-181.5001 1463.7655,-178 1453.7655,-174.5001 1453.7656,-181.5001"/>
</g>
<!-- ChatComponent  -->
<g id="node19" class="node">
<title>ChatComponent </title>
<polygon fill="#fb8072" stroke="#000000" points="2052.7745,-252 1941.2255,-252 1941.2255,-216 2052.7745,-216 2052.7745,-252"/>
<text text-anchor="middle" x="1997" y="-229.8" font-family="Times,serif" font-size="14.00" fill="#000000">ChatComponent </text>
</g>
<!-- NgxChatModule&#45;&gt;ChatComponent  -->
<g id="edge18" class="edge">
<title>NgxChatModule&#45;&gt;ChatComponent </title>
<path fill="none" stroke="#000000" stroke-dasharray="5,2" d="M1574.261,-181C1697.643,-181 1984.7867,-181 1984.7867,-181 1984.7867,-181 1984.7867,-205.7604 1984.7867,-205.7604"/>
<polygon fill="#000000" stroke="#000000" points="1981.2867,-205.7604 1984.7867,-215.7604 1988.2867,-205.7604 1981.2867,-205.7604"/>
</g>
<!-- ChatMessageInputComponent  -->
<g id="node20" class="node">
<title>ChatMessageInputComponent </title>
<polygon fill="#fb8072" stroke="#000000" points="1922.8031,-252 1733.1969,-252 1733.1969,-216 1922.8031,-216 1922.8031,-252"/>
<text text-anchor="middle" x="1828" y="-229.8" font-family="Times,serif" font-size="14.00" fill="#000000">ChatMessageInputComponent </text>
</g>
<!-- NgxChatModule&#45;&gt;ChatMessageInputComponent  -->
<g id="edge19" class="edge">
<title>NgxChatModule&#45;&gt;ChatMessageInputComponent </title>
<path fill="none" stroke="#000000" stroke-dasharray="5,2" d="M1574.2556,-184C1649.1507,-184 1773.6517,-184 1773.6517,-184 1773.6517,-184 1773.6517,-205.9489 1773.6517,-205.9489"/>
<polygon fill="#000000" stroke="#000000" points="1770.1517,-205.9488 1773.6517,-215.9489 1777.1517,-205.9489 1770.1517,-205.9488"/>
</g>
<!-- ChatMessageListComponent  -->
<g id="node21" class="node">
<title>ChatMessageListComponent </title>
<polygon fill="#fb8072" stroke="#000000" points="1715.0302,-252 1532.9698,-252 1532.9698,-216 1715.0302,-216 1715.0302,-252"/>
<text text-anchor="middle" x="1624" y="-229.8" font-family="Times,serif" font-size="14.00" fill="#000000">ChatMessageListComponent </text>
</g>
<!-- NgxChatModule&#45;&gt;ChatMessageListComponent  -->
<g id="edge20" class="edge">
<title>NgxChatModule&#45;&gt;ChatMessageListComponent </title>
<path fill="none" stroke="#000000" stroke-dasharray="5,2" d="M1553.517,-187.1061C1553.517,-187.1061 1553.517,-205.991 1553.517,-205.991"/>
<polygon fill="#000000" stroke="#000000" points="1550.0171,-205.9909 1553.517,-215.991 1557.0171,-205.991 1550.0171,-205.9909"/>
</g>
<!-- ChatMessageSimpleComponent  -->
<g id="node22" class="node">
<title>ChatMessageSimpleComponent </title>
<polygon fill="#fb8072" stroke="#000000" points="1514.9208,-252 1315.0792,-252 1315.0792,-216 1514.9208,-216 1514.9208,-252"/>
<text text-anchor="middle" x="1415" y="-229.8" font-family="Times,serif" font-size="14.00" fill="#000000">ChatMessageSimpleComponent </text>
</g>
<!-- NgxChatModule&#45;&gt;ChatMessageSimpleComponent  -->
<g id="edge21" class="edge">
<title>NgxChatModule&#45;&gt;ChatMessageSimpleComponent </title>
<path fill="none" stroke="#000000" stroke-dasharray="5,2" d="M1489.4556,-187.1061C1489.4556,-187.1061 1489.4556,-205.991 1489.4556,-205.991"/>
<polygon fill="#000000" stroke="#000000" points="1485.9557,-205.9909 1489.4556,-215.991 1492.9557,-205.991 1485.9557,-205.9909"/>
</g>
<!-- FileDropComponent  -->
<g id="node23" class="node">
<title>FileDropComponent </title>
<polygon fill="#fb8072" stroke="#000000" points="1296.8785,-252 1161.1215,-252 1161.1215,-216 1296.8785,-216 1296.8785,-252"/>
<text text-anchor="middle" x="1229" y="-229.8" font-family="Times,serif" font-size="14.00" fill="#000000">FileDropComponent </text>
</g>
<!-- NgxChatModule&#45;&gt;FileDropComponent  -->
<g id="edge22" class="edge">
<title>NgxChatModule&#45;&gt;FileDropComponent </title>
<path fill="none" stroke="#000000" stroke-dasharray="5,2" d="M1463.8709,-184C1391.4445,-184 1273.348,-184 1273.348,-184 1273.348,-184 1273.348,-205.9489 1273.348,-205.9489"/>
<polygon fill="#000000" stroke="#000000" points="1269.8481,-205.9488 1273.348,-215.9489 1276.8481,-205.9489 1269.8481,-205.9488"/>
</g>
<!-- LinksDirective  -->
<g id="node24" class="node">
<title>LinksDirective </title>
<polygon fill="#fb8072" stroke="#000000" points="1143.9717,-252 1040.0283,-252 1040.0283,-216 1143.9717,-216 1143.9717,-252"/>
<text text-anchor="middle" x="1092" y="-229.8" font-family="Times,serif" font-size="14.00" fill="#000000">LinksDirective </text>
</g>
<!-- NgxChatModule&#45;&gt;LinksDirective  -->
<g id="edge23" class="edge">
<title>NgxChatModule&#45;&gt;LinksDirective </title>
<path fill="none" stroke="#000000" stroke-dasharray="5,2" d="M1463.615,-181C1348.0792,-181 1092,-181 1092,-181 1092,-181 1092,-205.7604 1092,-205.7604"/>
<polygon fill="#000000" stroke="#000000" points="1088.5001,-205.7604 1092,-215.7604 1095.5001,-205.7604 1088.5001,-205.7604"/>
</g>
</g>
</svg>
