<?xml version="1.0" encoding="UTF-8" standalone="no"?>
<!DOCTYPE svg PUBLIC "-//W3C//DTD SVG 1.1//EN"
 "http://www.w3.org/Graphics/SVG/1.1/DTD/svg11.dtd">
<!-- Generated by graphviz version 2.40.1 (20161225.0304)
 -->
<!-- Title: dependencies Pages: 1 -->
<svg width="2181pt" height="284pt"
 viewBox="0.00 0.00 2181.00 284.00" xmlns="http://www.w3.org/2000/svg" xmlns:xlink="http://www.w3.org/1999/xlink">
<g id="graph0" class="graph" transform="scale(1 1) rotate(0) translate(4 280)">
<title>dependencies</title>
<polygon fill="#ffffff" stroke="transparent" points="-4,4 -4,-280 2177,-280 2177,4 -4,4"/>
<text text-anchor="start" x="1065.5091" y="-42.4" font-family="sans-serif" font-weight="bold" font-size="14.00" fill="#000000">Legend</text>
<polygon fill="#ffffb3" stroke="transparent" points="852.5,-10 852.5,-30 872.5,-30 872.5,-10 852.5,-10"/>
<text text-anchor="start" x="876.129" y="-15.4" font-family="sans-serif" font-size="14.00" fill="#000000"> &#160;Declarations</text>
<polygon fill="#8dd3c7" stroke="transparent" points="965.5,-10 965.5,-30 985.5,-30 985.5,-10 965.5,-10"/>
<text text-anchor="start" x="989.2251" y="-15.4" font-family="sans-serif" font-size="14.00" fill="#000000"> &#160;Module</text>
<polygon fill="#80b1d3" stroke="transparent" points="1051.5,-10 1051.5,-30 1071.5,-30 1071.5,-10 1051.5,-10"/>
<text text-anchor="start" x="1075.2812" y="-15.4" font-family="sans-serif" font-size="14.00" fill="#000000"> &#160;Bootstrap</text>
<polygon fill="#fdb462" stroke="transparent" points="1148.5,-10 1148.5,-30 1168.5,-30 1168.5,-10 1148.5,-10"/>
<text text-anchor="start" x="1172.1732" y="-15.4" font-family="sans-serif" font-size="14.00" fill="#000000"> &#160;Providers</text>
<polygon fill="#fb8072" stroke="transparent" points="1244.5,-10 1244.5,-30 1264.5,-30 1264.5,-10 1244.5,-10"/>
<text text-anchor="start" x="1268.2258" y="-15.4" font-family="sans-serif" font-size="14.00" fill="#000000"> &#160;Exports</text>
<g id="clust1" class="cluster">
<title>cluster_NgxChatModule</title>
<polygon fill="none" stroke="#000000" stroke-dasharray="1,5" points="8,-70 8,-268 2165,-268 2165,-70 8,-70"/>
</g>
<g id="clust2" class="cluster">
<title>cluster_NgxChatModule_declarations</title>
<polygon fill="none" stroke="#000000" points="16,-78 16,-130 2157,-130 2157,-78 16,-78"/>
</g>
<g id="clust16" class="cluster">
<title>cluster_NgxChatModule_exports</title>
<polygon fill="none" stroke="#000000" points="632,-208 632,-260 1386,-260 1386,-208 632,-208"/>
</g>
<!-- ChatComponent -->
<g id="node1" class="node">
<title>ChatComponent</title>
<polygon fill="#ffffb3" stroke="#000000" points="2148.7744,-122 2041.2256,-122 2041.2256,-86 2148.7744,-86 2148.7744,-122"/>
<text text-anchor="middle" x="2095" y="-99.8" font-family="Times,serif" font-size="14.00" fill="#000000">ChatComponent</text>
</g>
<!-- NgxChatModule -->
<g id="node13" class="node">
<title>NgxChatModule</title>
<polygon fill="#8dd3c7" stroke="#000000" points="1106.0982,-187 1103.0982,-191 1082.0982,-191 1079.0982,-187 995.9018,-187 995.9018,-151 1106.0982,-151 1106.0982,-187"/>
<text text-anchor="middle" x="1051" y="-164.8" font-family="Times,serif" font-size="14.00" fill="#000000">NgxChatModule</text>
</g>
<!-- ChatComponent&#45;&gt;NgxChatModule -->
<g id="edge1" class="edge">
<title>ChatComponent&#45;&gt;NgxChatModule</title>
<path fill="none" stroke="#000000" d="M2095,-122.0449C2095,-143.6623 2095,-177 2095,-177 2095,-177 1116.3929,-177 1116.3929,-177"/>
<polygon fill="#000000" stroke="#000000" points="1116.3929,-173.5001 1106.3929,-177 1116.3928,-180.5001 1116.3929,-173.5001"/>
</g>
<!-- ChatMessageComponent -->
<g id="node2" class="node">
<title>ChatMessageComponent</title>
<polygon fill="#ffffb3" stroke="#000000" points="2023.252,-122 1866.748,-122 1866.748,-86 2023.252,-86 2023.252,-122"/>
<text text-anchor="middle" x="1945" y="-99.8" font-family="Times,serif" font-size="14.00" fill="#000000">ChatMessageComponent</text>
</g>
<!-- ChatMessageComponent&#45;&gt;NgxChatModule -->
<g id="edge2" class="edge">
<title>ChatMessageComponent&#45;&gt;NgxChatModule</title>
<path fill="none" stroke="#000000" d="M1945,-122.2228C1945,-142.3652 1945,-172 1945,-172 1945,-172 1116.249,-172 1116.249,-172"/>
<polygon fill="#000000" stroke="#000000" points="1116.2491,-168.5001 1106.249,-172 1116.249,-175.5001 1116.2491,-168.5001"/>
</g>
<!-- ChatMessageInputComponent -->
<g id="node3" class="node">
<title>ChatMessageInputComponent</title>
<polygon fill="#ffffb3" stroke="#000000" points="1848.3032,-122 1661.6968,-122 1661.6968,-86 1848.3032,-86 1848.3032,-122"/>
<text text-anchor="middle" x="1755" y="-99.8" font-family="Times,serif" font-size="14.00" fill="#000000">ChatMessageInputComponent</text>
</g>
<!-- ChatMessageInputComponent&#45;&gt;NgxChatModule -->
<g id="edge3" class="edge">
<title>ChatMessageInputComponent&#45;&gt;NgxChatModule</title>
<path fill="none" stroke="#000000" d="M1755,-122.2222C1755,-140.8285 1755,-167 1755,-167 1755,-167 1116.2417,-167 1116.2417,-167"/>
<polygon fill="#000000" stroke="#000000" points="1116.2417,-163.5001 1106.2417,-167 1116.2417,-170.5001 1116.2417,-163.5001"/>
</g>
<!-- ChatMessageLinkComponent -->
<g id="node4" class="node">
<title>ChatMessageLinkComponent</title>
<polygon fill="#ffffb3" stroke="#000000" points="1643.6951,-122 1460.3049,-122 1460.3049,-86 1643.6951,-86 1643.6951,-122"/>
<text text-anchor="middle" x="1552" y="-99.8" font-family="Times,serif" font-size="14.00" fill="#000000">ChatMessageLinkComponent</text>
</g>
<!-- ChatMessageLinkComponent&#45;&gt;NgxChatModule -->
<g id="edge4" class="edge">
<title>ChatMessageLinkComponent&#45;&gt;NgxChatModule</title>
<path fill="none" stroke="#000000" d="M1552,-122.0336C1552,-139.0597 1552,-162 1552,-162 1552,-162 1116.53,-162 1116.53,-162"/>
<polygon fill="#000000" stroke="#000000" points="1116.53,-158.5001 1106.53,-162 1116.53,-165.5001 1116.53,-158.5001"/>
</g>
<!-- ChatMessageListComponent -->
<g id="node5" class="node">
<title>ChatMessageListComponent</title>
<polygon fill="#ffffb3" stroke="#000000" points="1442.0308,-122 1263.9692,-122 1263.9692,-86 1442.0308,-86 1442.0308,-122"/>
<text text-anchor="middle" x="1353" y="-99.8" font-family="Times,serif" font-size="14.00" fill="#000000">ChatMessageListComponent</text>
</g>
<!-- ChatMessageListComponent&#45;&gt;NgxChatModule -->
<g id="edge5" class="edge">
<title>ChatMessageListComponent&#45;&gt;NgxChatModule</title>
<path fill="none" stroke="#000000" d="M1303.4543,-122.2396C1303.4543,-137.5706 1303.4543,-157 1303.4543,-157 1303.4543,-157 1116.0902,-157 1116.0902,-157"/>
<polygon fill="#000000" stroke="#000000" points="1116.0902,-153.5001 1106.0902,-157 1116.0902,-160.5001 1116.0902,-153.5001"/>
</g>
<!-- ChatMessageTextComponent -->
<g id="node6" class="node">
<title>ChatMessageTextComponent</title>
<polygon fill="#ffffb3" stroke="#000000" points="1246.4101,-122 1063.5899,-122 1063.5899,-86 1246.4101,-86 1246.4101,-122"/>
<text text-anchor="middle" x="1155" y="-99.8" font-family="Times,serif" font-size="14.00" fill="#000000">ChatMessageTextComponent</text>
</g>
<!-- ChatMessageTextComponent&#45;&gt;NgxChatModule -->
<g id="edge6" class="edge">
<title>ChatMessageTextComponent&#45;&gt;NgxChatModule</title>
<path fill="none" stroke="#000000" d="M1084.9221,-122.1061C1084.9221,-122.1061 1084.9221,-140.991 1084.9221,-140.991"/>
<polygon fill="#000000" stroke="#000000" points="1081.4222,-140.9909 1084.9221,-150.991 1088.4222,-140.991 1081.4222,-140.9909"/>
</g>
<!-- ChatRoomMessagesComponent -->
<g id="node7" class="node">
<title>ChatRoomMessagesComponent</title>
<polygon fill="#ffffb3" stroke="#000000" points="1046.4241,-122 849.5759,-122 849.5759,-86 1046.4241,-86 1046.4241,-122"/>
<text text-anchor="middle" x="948" y="-99.8" font-family="Times,serif" font-size="14.00" fill="#000000">ChatRoomMessagesComponent</text>
</g>
<!-- ChatRoomMessagesComponent&#45;&gt;NgxChatModule -->
<g id="edge7" class="edge">
<title>ChatRoomMessagesComponent&#45;&gt;NgxChatModule</title>
<path fill="none" stroke="#000000" d="M1021.0814,-122.1061C1021.0814,-122.1061 1021.0814,-140.991 1021.0814,-140.991"/>
<polygon fill="#000000" stroke="#000000" points="1017.5814,-140.9909 1021.0814,-150.991 1024.5814,-140.991 1017.5814,-140.9909"/>
</g>
<!-- ChatWindowComponent -->
<g id="node8" class="node">
<title>ChatWindowComponent</title>
<polygon fill="#ffffb3" stroke="#000000" points="831.986,-122 676.014,-122 676.014,-86 831.986,-86 831.986,-122"/>
<text text-anchor="middle" x="754" y="-99.8" font-family="Times,serif" font-size="14.00" fill="#000000">ChatWindowComponent</text>
</g>
<!-- ChatWindowComponent&#45;&gt;NgxChatModule -->
<g id="edge8" class="edge">
<title>ChatWindowComponent&#45;&gt;NgxChatModule</title>
<path fill="none" stroke="#000000" d="M754,-122.2396C754,-137.5706 754,-157 754,-157 754,-157 985.8326,-157 985.8326,-157"/>
<polygon fill="#000000" stroke="#000000" points="985.8327,-160.5001 995.8326,-157 985.8326,-153.5001 985.8327,-160.5001"/>
</g>
<!-- ChatWindowListComponent -->
<g id="node9" class="node">
<title>ChatWindowListComponent</title>
<polygon fill="#ffffb3" stroke="#000000" points="657.7646,-122 480.2354,-122 480.2354,-86 657.7646,-86 657.7646,-122"/>
<text text-anchor="middle" x="569" y="-99.8" font-family="Times,serif" font-size="14.00" fill="#000000">ChatWindowListComponent</text>
</g>
<!-- ChatWindowListComponent&#45;&gt;NgxChatModule -->
<g id="edge9" class="edge">
<title>ChatWindowListComponent&#45;&gt;NgxChatModule</title>
<path fill="none" stroke="#000000" d="M648.9602,-122.0336C648.9602,-139.0597 648.9602,-162 648.9602,-162 648.9602,-162 985.9411,-162 985.9411,-162"/>
<polygon fill="#000000" stroke="#000000" points="985.9411,-165.5001 995.9411,-162 985.941,-158.5001 985.9411,-165.5001"/>
</g>
<!-- LinksDirective -->
<g id="node10" class="node">
<title>LinksDirective</title>
<polygon fill="#ffffb3" stroke="#000000" points="461.9706,-122 362.0294,-122 362.0294,-86 461.9706,-86 461.9706,-122"/>
<text text-anchor="middle" x="412" y="-99.8" font-family="Times,serif" font-size="14.00" fill="#000000">LinksDirective</text>
</g>
<!-- LinksDirective&#45;&gt;NgxChatModule -->
<g id="edge10" class="edge">
<title>LinksDirective&#45;&gt;NgxChatModule</title>
<path fill="none" stroke="#000000" d="M412,-122.2222C412,-140.8285 412,-167 412,-167 412,-167 985.6888,-167 985.6888,-167"/>
<polygon fill="#000000" stroke="#000000" points="985.6888,-170.5001 995.6888,-167 985.6887,-163.5001 985.6888,-170.5001"/>
</g>
<!-- RosterContactComponent -->
<g id="node11" class="node">
<title>RosterContactComponent</title>
<polygon fill="#ffffb3" stroke="#000000" points="343.927,-122 182.073,-122 182.073,-86 343.927,-86 343.927,-122"/>
<text text-anchor="middle" x="263" y="-99.8" font-family="Times,serif" font-size="14.00" fill="#000000">RosterContactComponent</text>
</g>
<!-- RosterContactComponent&#45;&gt;NgxChatModule -->
<g id="edge11" class="edge">
<title>RosterContactComponent&#45;&gt;NgxChatModule</title>
<path fill="none" stroke="#000000" d="M263,-122.2228C263,-142.3652 263,-172 263,-172 263,-172 985.9026,-172 985.9026,-172"/>
<polygon fill="#000000" stroke="#000000" points="985.9026,-175.5001 995.9026,-172 985.9025,-168.5001 985.9026,-175.5001"/>
</g>
<!-- RosterListComponent -->
<g id="node12" class="node">
<title>RosterListComponent</title>
<polygon fill="#ffffb3" stroke="#000000" points="163.6582,-122 24.3418,-122 24.3418,-86 163.6582,-86 163.6582,-122"/>
<text text-anchor="middle" x="94" y="-99.8" font-family="Times,serif" font-size="14.00" fill="#000000">RosterListComponent</text>
</g>
<!-- RosterListComponent&#45;&gt;NgxChatModule -->
<g id="edge12" class="edge">
<title>RosterListComponent&#45;&gt;NgxChatModule</title>
<path fill="none" stroke="#000000" d="M94,-122.0449C94,-143.6623 94,-177 94,-177 94,-177 985.7612,-177 985.7612,-177"/>
<polygon fill="#000000" stroke="#000000" points="985.7612,-180.5001 995.7612,-177 985.7612,-173.5001 985.7612,-180.5001"/>
</g>
<!-- ChatComponent  -->
<g id="node14" class="node">
<title>ChatComponent </title>
<polygon fill="#fb8072" stroke="#000000" points="1377.7745,-252 1266.2255,-252 1266.2255,-216 1377.7745,-216 1377.7745,-252"/>
<text text-anchor="middle" x="1322" y="-229.8" font-family="Times,serif" font-size="14.00" fill="#000000">ChatComponent </text>
</g>
<!-- NgxChatModule&#45;&gt;ChatComponent  -->
<g id="edge13" class="edge">
<title>NgxChatModule&#45;&gt;ChatComponent </title>
<path fill="none" stroke="#000000" stroke-dasharray="5,2" d="M1106.1429,-182C1190.1519,-182 1340.5457,-182 1340.5457,-182 1340.5457,-182 1340.5457,-205.8129 1340.5457,-205.8129"/>
<polygon fill="#000000" stroke="#000000" points="1337.0458,-205.8129 1340.5457,-215.8129 1344.0458,-205.813 1337.0458,-205.8129"/>
</g>
<!-- ChatMessageInputComponent  -->
<g id="node15" class="node">
<title>ChatMessageInputComponent </title>
<polygon fill="#fb8072" stroke="#000000" points="1247.8031,-252 1058.1969,-252 1058.1969,-216 1247.8031,-216 1247.8031,-252"/>
<text text-anchor="middle" x="1153" y="-229.8" font-family="Times,serif" font-size="14.00" fill="#000000">ChatMessageInputComponent </text>
</g>
<!-- NgxChatModule&#45;&gt;ChatMessageInputComponent  -->
<g id="edge14" class="edge">
<title>NgxChatModule&#45;&gt;ChatMessageInputComponent </title>
<path fill="none" stroke="#000000" stroke-dasharray="5,2" d="M1082.0738,-187.1061C1082.0738,-187.1061 1082.0738,-205.991 1082.0738,-205.991"/>
<polygon fill="#000000" stroke="#000000" points="1078.5739,-205.9909 1082.0738,-215.991 1085.5739,-205.991 1078.5739,-205.9909"/>
</g>
<!-- ChatMessageListComponent  -->
<g id="node16" class="node">
<title>ChatMessageListComponent </title>
<polygon fill="#fb8072" stroke="#000000" points="1040.0302,-252 857.9698,-252 857.9698,-216 1040.0302,-216 1040.0302,-252"/>
<text text-anchor="middle" x="949" y="-229.8" font-family="Times,serif" font-size="14.00" fill="#000000">ChatMessageListComponent </text>
</g>
<!-- NgxChatModule&#45;&gt;ChatMessageListComponent  -->
<g id="edge15" class="edge">
<title>NgxChatModule&#45;&gt;ChatMessageListComponent </title>
<path fill="none" stroke="#000000" stroke-dasharray="5,2" d="M1017.983,-187.1061C1017.983,-187.1061 1017.983,-205.991 1017.983,-205.991"/>
<polygon fill="#000000" stroke="#000000" points="1014.4831,-205.9909 1017.983,-215.991 1021.4831,-205.991 1014.4831,-205.9909"/>
</g>
<!-- ChatRoomMessagesComponent  -->
<g id="node17" class="node">
<title>ChatRoomMessagesComponent </title>
<polygon fill="#fb8072" stroke="#000000" points="839.9236,-252 640.0764,-252 640.0764,-216 839.9236,-216 839.9236,-252"/>
<text text-anchor="middle" x="740" y="-229.8" font-family="Times,serif" font-size="14.00" fill="#000000">ChatRoomMessagesComponent </text>
</g>
<!-- NgxChatModule&#45;&gt;ChatRoomMessagesComponent  -->
<g id="edge16" class="edge">
<title>NgxChatModule&#45;&gt;ChatRoomMessagesComponent </title>
<path fill="none" stroke="#000000" stroke-dasharray="5,2" d="M995.9056,-182C932.1974,-182 835.9774,-182 835.9774,-182 835.9774,-182 835.9774,-205.8129 835.9774,-205.8129"/>
<polygon fill="#000000" stroke="#000000" points="832.4775,-205.8129 835.9774,-215.8129 839.4775,-205.813 832.4775,-205.8129"/>
</g>
</g>
</svg>
