<?xml version="1.0" encoding="UTF-8" standalone="no"?>
<!DOCTYPE svg PUBLIC "-//W3C//DTD SVG 1.1//EN"
 "http://www.w3.org/Graphics/SVG/1.1/DTD/svg11.dtd">
<!-- Generated by graphviz version 2.40.1 (20161225.0304)
 -->
<!-- Title: dependencies Pages: 1 -->
<svg width="2749pt" height="284pt"
 viewBox="0.00 0.00 2749.00 284.00" xmlns="http://www.w3.org/2000/svg" xmlns:xlink="http://www.w3.org/1999/xlink">
<g id="graph0" class="graph" transform="scale(1 1) rotate(0) translate(4 280)">
<title>dependencies</title>
<polygon fill="#ffffff" stroke="transparent" points="-4,4 -4,-280 2745,-280 2745,4 -4,4"/>
<text text-anchor="start" x="1349.5091" y="-42.4" font-family="sans-serif" font-weight="bold" font-size="14.00" fill="#000000">Legend</text>
<polygon fill="#ffffb3" stroke="transparent" points="1136.5,-10 1136.5,-30 1156.5,-30 1156.5,-10 1136.5,-10"/>
<text text-anchor="start" x="1160.129" y="-15.4" font-family="sans-serif" font-size="14.00" fill="#000000"> &#160;Declarations</text>
<polygon fill="#8dd3c7" stroke="transparent" points="1249.5,-10 1249.5,-30 1269.5,-30 1269.5,-10 1249.5,-10"/>
<text text-anchor="start" x="1273.2251" y="-15.4" font-family="sans-serif" font-size="14.00" fill="#000000"> &#160;Module</text>
<polygon fill="#80b1d3" stroke="transparent" points="1335.5,-10 1335.5,-30 1355.5,-30 1355.5,-10 1335.5,-10"/>
<text text-anchor="start" x="1359.2812" y="-15.4" font-family="sans-serif" font-size="14.00" fill="#000000"> &#160;Bootstrap</text>
<polygon fill="#fdb462" stroke="transparent" points="1432.5,-10 1432.5,-30 1452.5,-30 1452.5,-10 1432.5,-10"/>
<text text-anchor="start" x="1456.1732" y="-15.4" font-family="sans-serif" font-size="14.00" fill="#000000"> &#160;Providers</text>
<polygon fill="#fb8072" stroke="transparent" points="1528.5,-10 1528.5,-30 1548.5,-30 1548.5,-10 1528.5,-10"/>
<text text-anchor="start" x="1552.2258" y="-15.4" font-family="sans-serif" font-size="14.00" fill="#000000"> &#160;Exports</text>
<g id="clust1" class="cluster">
<title>cluster_NgxChatModule</title>
<polygon fill="none" stroke="#000000" stroke-dasharray="1,5" points="8,-70 8,-268 2733,-268 2733,-70 8,-70"/>
</g>
<g id="clust2" class="cluster">
<title>cluster_NgxChatModule_declarations</title>
<polygon fill="none" stroke="#000000" points="16,-78 16,-130 2725,-130 2725,-78 16,-78"/>
</g>
<g id="clust19" class="cluster">
<title>cluster_NgxChatModule_exports</title>
<polygon fill="none" stroke="#000000" points="818,-208 818,-260 1847,-260 1847,-208 818,-208"/>
</g>
<!-- ChatComponent -->
<g id="node1" class="node">
<title>ChatComponent</title>
<polygon fill="#ffffb3" stroke="#000000" points="2716.7744,-122 2609.2256,-122 2609.2256,-86 2716.7744,-86 2716.7744,-122"/>
<text text-anchor="middle" x="2663" y="-99.8" font-family="Times,serif" font-size="14.00" fill="#000000">ChatComponent</text>
</g>
<!-- NgxChatModule -->
<g id="node16" class="node">
<title>NgxChatModule</title>
<polygon fill="#8dd3c7" stroke="#000000" points="1360.0982,-187 1357.0982,-191 1336.0982,-191 1333.0982,-187 1249.9018,-187 1249.9018,-151 1360.0982,-151 1360.0982,-187"/>
<text text-anchor="middle" x="1305" y="-164.8" font-family="Times,serif" font-size="14.00" fill="#000000">NgxChatModule</text>
</g>
<!-- ChatComponent&#45;&gt;NgxChatModule -->
<g id="edge1" class="edge">
<title>ChatComponent&#45;&gt;NgxChatModule</title>
<path fill="none" stroke="#000000" d="M2663,-122.0449C2663,-143.6623 2663,-177 2663,-177 2663,-177 1370.3413,-177 1370.3413,-177"/>
<polygon fill="#000000" stroke="#000000" points="1370.3414,-173.5001 1360.3413,-177 1370.3413,-180.5001 1370.3414,-173.5001"/>
</g>
<!-- ChatMessageComponent -->
<g id="node2" class="node">
<title>ChatMessageComponent</title>
<polygon fill="#ffffb3" stroke="#000000" points="2591.252,-122 2434.748,-122 2434.748,-86 2591.252,-86 2591.252,-122"/>
<text text-anchor="middle" x="2513" y="-99.8" font-family="Times,serif" font-size="14.00" fill="#000000">ChatMessageComponent</text>
</g>
<!-- ChatMessageComponent&#45;&gt;NgxChatModule -->
<g id="edge2" class="edge">
<title>ChatMessageComponent&#45;&gt;NgxChatModule</title>
<path fill="none" stroke="#000000" d="M2513,-122.1289C2513,-142.5724 2513,-173 2513,-173 2513,-173 1370.4423,-173 1370.4423,-173"/>
<polygon fill="#000000" stroke="#000000" points="1370.4423,-169.5001 1360.4423,-173 1370.4423,-176.5001 1370.4423,-169.5001"/>
</g>
<!-- ChatMessageInputComponent -->
<g id="node3" class="node">
<title>ChatMessageInputComponent</title>
<polygon fill="#ffffb3" stroke="#000000" points="2416.3032,-122 2229.6968,-122 2229.6968,-86 2416.3032,-86 2416.3032,-122"/>
<text text-anchor="middle" x="2323" y="-99.8" font-family="Times,serif" font-size="14.00" fill="#000000">ChatMessageInputComponent</text>
</g>
<!-- ChatMessageInputComponent&#45;&gt;NgxChatModule -->
<g id="edge3" class="edge">
<title>ChatMessageInputComponent&#45;&gt;NgxChatModule</title>
<path fill="none" stroke="#000000" d="M2323,-122.1061C2323,-141.3391 2323,-169 2323,-169 2323,-169 1370.093,-169 1370.093,-169"/>
<polygon fill="#000000" stroke="#000000" points="1370.0931,-165.5001 1360.093,-169 1370.093,-172.5001 1370.0931,-165.5001"/>
</g>
<!-- ChatMessageLinkComponent -->
<g id="node4" class="node">
<title>ChatMessageLinkComponent</title>
<polygon fill="#ffffb3" stroke="#000000" points="2211.6951,-122 2028.3049,-122 2028.3049,-86 2211.6951,-86 2211.6951,-122"/>
<text text-anchor="middle" x="2120" y="-99.8" font-family="Times,serif" font-size="14.00" fill="#000000">ChatMessageLinkComponent</text>
</g>
<!-- ChatMessageLinkComponent&#45;&gt;NgxChatModule -->
<g id="edge4" class="edge">
<title>ChatMessageLinkComponent&#45;&gt;NgxChatModule</title>
<path fill="none" stroke="#000000" d="M2120,-122.2667C2120,-140.5552 2120,-166 2120,-166 2120,-166 1370.0583,-166 1370.0583,-166"/>
<polygon fill="#000000" stroke="#000000" points="1370.0584,-162.5001 1360.0583,-166 1370.0583,-169.5001 1370.0584,-162.5001"/>
</g>
<!-- ChatMessageListComponent -->
<g id="node5" class="node">
<title>ChatMessageListComponent</title>
<polygon fill="#ffffb3" stroke="#000000" points="2010.0308,-122 1831.9692,-122 1831.9692,-86 2010.0308,-86 2010.0308,-122"/>
<text text-anchor="middle" x="1921" y="-99.8" font-family="Times,serif" font-size="14.00" fill="#000000">ChatMessageListComponent</text>
</g>
<!-- ChatMessageListComponent&#45;&gt;NgxChatModule -->
<g id="edge5" class="edge">
<title>ChatMessageListComponent&#45;&gt;NgxChatModule</title>
<path fill="none" stroke="#000000" d="M1924.4511,-122.0336C1924.4511,-139.0597 1924.4511,-162 1924.4511,-162 1924.4511,-162 1370.2444,-162 1370.2444,-162"/>
<polygon fill="#000000" stroke="#000000" points="1370.2445,-158.5001 1360.2444,-162 1370.2444,-165.5001 1370.2445,-158.5001"/>
</g>
<!-- ChatMessageTextComponent -->
<g id="node6" class="node">
<title>ChatMessageTextComponent</title>
<polygon fill="#ffffb3" stroke="#000000" points="1814.4101,-122 1631.5899,-122 1631.5899,-86 1814.4101,-86 1814.4101,-122"/>
<text text-anchor="middle" x="1723" y="-99.8" font-family="Times,serif" font-size="14.00" fill="#000000">ChatMessageTextComponent</text>
</g>
<!-- ChatMessageTextComponent&#45;&gt;NgxChatModule -->
<g id="edge6" class="edge">
<title>ChatMessageTextComponent&#45;&gt;NgxChatModule</title>
<path fill="none" stroke="#000000" d="M1670.3484,-122.0091C1670.3484,-138.0494 1670.3484,-159 1670.3484,-159 1670.3484,-159 1370.0919,-159 1370.0919,-159"/>
<polygon fill="#000000" stroke="#000000" points="1370.0919,-155.5001 1360.0919,-159 1370.0919,-162.5001 1370.0919,-155.5001"/>
</g>
<!-- ChatRoomMessagesComponent -->
<g id="node7" class="node">
<title>ChatRoomMessagesComponent</title>
<polygon fill="#ffffb3" stroke="#000000" points="1614.4241,-122 1417.5759,-122 1417.5759,-86 1614.4241,-86 1614.4241,-122"/>
<text text-anchor="middle" x="1516" y="-99.8" font-family="Times,serif" font-size="14.00" fill="#000000">ChatRoomMessagesComponent</text>
</g>
<!-- ChatRoomMessagesComponent&#45;&gt;NgxChatModule -->
<g id="edge7" class="edge">
<title>ChatRoomMessagesComponent&#45;&gt;NgxChatModule</title>
<path fill="none" stroke="#000000" d="M1459.4017,-122.1243C1459.4017,-136.7832 1459.4017,-155 1459.4017,-155 1459.4017,-155 1370.3064,-155 1370.3064,-155"/>
<polygon fill="#000000" stroke="#000000" points="1370.3065,-151.5001 1360.3064,-155 1370.3064,-158.5001 1370.3065,-151.5001"/>
</g>
<!-- ChatVideoWindowComponent -->
<g id="node8" class="node">
<title>ChatVideoWindowComponent</title>
<polygon fill="#ffffb3" stroke="#000000" points="1400.1979,-122 1209.8021,-122 1209.8021,-86 1400.1979,-86 1400.1979,-122"/>
<text text-anchor="middle" x="1305" y="-99.8" font-family="Times,serif" font-size="14.00" fill="#000000">ChatVideoWindowComponent</text>
</g>
<!-- ChatVideoWindowComponent&#45;&gt;NgxChatModule -->
<g id="edge8" class="edge">
<title>ChatVideoWindowComponent&#45;&gt;NgxChatModule</title>
<path fill="none" stroke="#000000" d="M1305,-122.1061C1305,-122.1061 1305,-140.991 1305,-140.991"/>
<polygon fill="#000000" stroke="#000000" points="1301.5001,-140.9909 1305,-150.991 1308.5001,-140.991 1301.5001,-140.9909"/>
</g>
<!-- ChatWindowComponent -->
<g id="node9" class="node">
<title>ChatWindowComponent</title>
<polygon fill="#ffffb3" stroke="#000000" points="1191.986,-122 1036.014,-122 1036.014,-86 1191.986,-86 1191.986,-122"/>
<text text-anchor="middle" x="1114" y="-99.8" font-family="Times,serif" font-size="14.00" fill="#000000">ChatWindowComponent</text>
</g>
<!-- ChatWindowComponent&#45;&gt;NgxChatModule -->
<g id="edge9" class="edge">
<title>ChatWindowComponent&#45;&gt;NgxChatModule</title>
<path fill="none" stroke="#000000" d="M1146.5156,-122.1243C1146.5156,-136.7832 1146.5156,-155 1146.5156,-155 1146.5156,-155 1239.5698,-155 1239.5698,-155"/>
<polygon fill="#000000" stroke="#000000" points="1239.5699,-158.5001 1249.5698,-155 1239.5698,-151.5001 1239.5699,-158.5001"/>
</g>
<!-- ChatWindowFrameComponent -->
<g id="node10" class="node">
<title>ChatWindowFrameComponent</title>
<polygon fill="#ffffb3" stroke="#000000" points="1017.7492,-122 826.2508,-122 826.2508,-86 1017.7492,-86 1017.7492,-122"/>
<text text-anchor="middle" x="922" y="-99.8" font-family="Times,serif" font-size="14.00" fill="#000000">ChatWindowFrameComponent</text>
</g>
<!-- ChatWindowFrameComponent&#45;&gt;NgxChatModule -->
<g id="edge10" class="edge">
<title>ChatWindowFrameComponent&#45;&gt;NgxChatModule</title>
<path fill="none" stroke="#000000" d="M982.5928,-122.0091C982.5928,-138.0494 982.5928,-159 982.5928,-159 982.5928,-159 1239.9425,-159 1239.9425,-159"/>
<polygon fill="#000000" stroke="#000000" points="1239.9426,-162.5001 1249.9425,-159 1239.9425,-155.5001 1239.9426,-162.5001"/>
</g>
<!-- ChatWindowListComponent -->
<g id="node11" class="node">
<title>ChatWindowListComponent</title>
<polygon fill="#ffffb3" stroke="#000000" points="807.7646,-122 630.2354,-122 630.2354,-86 807.7646,-86 807.7646,-122"/>
<text text-anchor="middle" x="719" y="-99.8" font-family="Times,serif" font-size="14.00" fill="#000000">ChatWindowListComponent</text>
</g>
<!-- ChatWindowListComponent&#45;&gt;NgxChatModule -->
<g id="edge11" class="edge">
<title>ChatWindowListComponent&#45;&gt;NgxChatModule</title>
<path fill="none" stroke="#000000" d="M719,-122.0336C719,-139.0597 719,-162 719,-162 719,-162 1239.8705,-162 1239.8705,-162"/>
<polygon fill="#000000" stroke="#000000" points="1239.8706,-165.5001 1249.8705,-162 1239.8705,-158.5001 1239.8706,-165.5001"/>
</g>
<!-- FileDropComponent -->
<g id="node12" class="node">
<title>FileDropComponent</title>
<polygon fill="#ffffb3" stroke="#000000" points="611.8781,-122 480.1219,-122 480.1219,-86 611.8781,-86 611.8781,-122"/>
<text text-anchor="middle" x="546" y="-99.8" font-family="Times,serif" font-size="14.00" fill="#000000">FileDropComponent</text>
</g>
<!-- FileDropComponent&#45;&gt;NgxChatModule -->
<g id="edge12" class="edge">
<title>FileDropComponent&#45;&gt;NgxChatModule</title>
<path fill="none" stroke="#000000" d="M546,-122.2667C546,-140.5552 546,-166 546,-166 546,-166 1239.8032,-166 1239.8032,-166"/>
<polygon fill="#000000" stroke="#000000" points="1239.8032,-169.5001 1249.8032,-166 1239.8032,-162.5001 1239.8032,-169.5001"/>
</g>
<!-- LinksDirective -->
<g id="node13" class="node">
<title>LinksDirective</title>
<polygon fill="#ffffb3" stroke="#000000" points="461.9706,-122 362.0294,-122 362.0294,-86 461.9706,-86 461.9706,-122"/>
<text text-anchor="middle" x="412" y="-99.8" font-family="Times,serif" font-size="14.00" fill="#000000">LinksDirective</text>
</g>
<!-- LinksDirective&#45;&gt;NgxChatModule -->
<g id="edge13" class="edge">
<title>LinksDirective&#45;&gt;NgxChatModule</title>
<path fill="none" stroke="#000000" d="M412,-122.1061C412,-141.3391 412,-169 412,-169 412,-169 1239.8128,-169 1239.8128,-169"/>
<polygon fill="#000000" stroke="#000000" points="1239.8128,-172.5001 1249.8128,-169 1239.8127,-165.5001 1239.8128,-172.5001"/>
</g>
<!-- RosterContactComponent -->
<g id="node14" class="node">
<title>RosterContactComponent</title>
<polygon fill="#ffffb3" stroke="#000000" points="343.927,-122 182.073,-122 182.073,-86 343.927,-86 343.927,-122"/>
<text text-anchor="middle" x="263" y="-99.8" font-family="Times,serif" font-size="14.00" fill="#000000">RosterContactComponent</text>
</g>
<!-- RosterContactComponent&#45;&gt;NgxChatModule -->
<g id="edge14" class="edge">
<title>RosterContactComponent&#45;&gt;NgxChatModule</title>
<path fill="none" stroke="#000000" d="M263,-122.1289C263,-142.5724 263,-173 263,-173 263,-173 1239.7133,-173 1239.7133,-173"/>
<polygon fill="#000000" stroke="#000000" points="1239.7133,-176.5001 1249.7133,-173 1239.7132,-169.5001 1239.7133,-176.5001"/>
</g>
<!-- RosterListComponent -->
<g id="node15" class="node">
<title>RosterListComponent</title>
<polygon fill="#ffffb3" stroke="#000000" points="163.6582,-122 24.3418,-122 24.3418,-86 163.6582,-86 163.6582,-122"/>
<text text-anchor="middle" x="94" y="-99.8" font-family="Times,serif" font-size="14.00" fill="#000000">RosterListComponent</text>
</g>
<!-- RosterListComponent&#45;&gt;NgxChatModule -->
<g id="edge15" class="edge">
<title>RosterListComponent&#45;&gt;NgxChatModule</title>
<path fill="none" stroke="#000000" d="M94,-122.0449C94,-143.6623 94,-177 94,-177 94,-177 1239.819,-177 1239.819,-177"/>
<polygon fill="#000000" stroke="#000000" points="1239.8191,-180.5001 1249.819,-177 1239.819,-173.5001 1239.8191,-180.5001"/>
</g>
<!-- ChatComponent  -->
<g id="node17" class="node">
<title>ChatComponent </title>
<polygon fill="#fb8072" stroke="#000000" points="1838.7745,-252 1727.2255,-252 1727.2255,-216 1838.7745,-216 1838.7745,-252"/>
<text text-anchor="middle" x="1783" y="-229.8" font-family="Times,serif" font-size="14.00" fill="#000000">ChatComponent </text>
</g>
<!-- NgxChatModule&#45;&gt;ChatComponent  -->
<g id="edge16" class="edge">
<title>NgxChatModule&#45;&gt;ChatComponent </title>
<path fill="none" stroke="#000000" stroke-dasharray="5,2" d="M1360.2606,-180C1483.6419,-180 1770.7839,-180 1770.7839,-180 1770.7839,-180 1770.7839,-205.7181 1770.7839,-205.7181"/>
<polygon fill="#000000" stroke="#000000" points="1767.2839,-205.718 1770.7839,-215.7181 1774.2839,-205.7181 1767.2839,-205.718"/>
</g>
<!-- ChatMessageInputComponent  -->
<g id="node18" class="node">
<title>ChatMessageInputComponent </title>
<polygon fill="#fb8072" stroke="#000000" points="1708.8031,-252 1519.1969,-252 1519.1969,-216 1708.8031,-216 1708.8031,-252"/>
<text text-anchor="middle" x="1614" y="-229.8" font-family="Times,serif" font-size="14.00" fill="#000000">ChatMessageInputComponent </text>
</g>
<!-- NgxChatModule&#45;&gt;ChatMessageInputComponent  -->
<g id="edge17" class="edge">
<title>NgxChatModule&#45;&gt;ChatMessageInputComponent </title>
<path fill="none" stroke="#000000" stroke-dasharray="5,2" d="M1360.1706,-184C1436.9373,-184 1566.6552,-184 1566.6552,-184 1566.6552,-184 1566.6552,-205.9489 1566.6552,-205.9489"/>
<polygon fill="#000000" stroke="#000000" points="1563.1552,-205.9488 1566.6552,-215.9489 1570.1552,-205.9489 1563.1552,-205.9488"/>
</g>
<!-- ChatMessageListComponent  -->
<g id="node19" class="node">
<title>ChatMessageListComponent </title>
<polygon fill="#fb8072" stroke="#000000" points="1501.0302,-252 1318.9698,-252 1318.9698,-216 1501.0302,-216 1501.0302,-252"/>
<text text-anchor="middle" x="1410" y="-229.8" font-family="Times,serif" font-size="14.00" fill="#000000">ChatMessageListComponent </text>
</g>
<!-- NgxChatModule&#45;&gt;ChatMessageListComponent  -->
<g id="edge18" class="edge">
<title>NgxChatModule&#45;&gt;ChatMessageListComponent </title>
<path fill="none" stroke="#000000" stroke-dasharray="5,2" d="M1339.517,-187.1061C1339.517,-187.1061 1339.517,-205.991 1339.517,-205.991"/>
<polygon fill="#000000" stroke="#000000" points="1336.0171,-205.9909 1339.517,-215.991 1343.0171,-205.991 1336.0171,-205.9909"/>
</g>
<!-- ChatRoomMessagesComponent  -->
<g id="node20" class="node">
<title>ChatRoomMessagesComponent </title>
<polygon fill="#fb8072" stroke="#000000" points="1300.9236,-252 1101.0764,-252 1101.0764,-216 1300.9236,-216 1300.9236,-252"/>
<text text-anchor="middle" x="1201" y="-229.8" font-family="Times,serif" font-size="14.00" fill="#000000">ChatRoomMessagesComponent </text>
</g>
<!-- NgxChatModule&#45;&gt;ChatRoomMessagesComponent  -->
<g id="edge19" class="edge">
<title>NgxChatModule&#45;&gt;ChatRoomMessagesComponent </title>
<path fill="none" stroke="#000000" stroke-dasharray="5,2" d="M1275.4564,-187.1061C1275.4564,-187.1061 1275.4564,-205.991 1275.4564,-205.991"/>
<polygon fill="#000000" stroke="#000000" points="1271.9564,-205.9909 1275.4564,-215.991 1278.9564,-205.991 1271.9564,-205.9909"/>
</g>
<!-- FileDropComponent  -->
<g id="node21" class="node">
<title>FileDropComponent </title>
<polygon fill="#fb8072" stroke="#000000" points="1082.8785,-252 947.1215,-252 947.1215,-216 1082.8785,-216 1082.8785,-252"/>
<text text-anchor="middle" x="1015" y="-229.8" font-family="Times,serif" font-size="14.00" fill="#000000">FileDropComponent </text>
</g>
<!-- NgxChatModule&#45;&gt;FileDropComponent  -->
<g id="edge20" class="edge">
<title>NgxChatModule&#45;&gt;FileDropComponent </title>
<path fill="none" stroke="#000000" stroke-dasharray="5,2" d="M1249.8709,-184C1177.4445,-184 1059.348,-184 1059.348,-184 1059.348,-184 1059.348,-205.9489 1059.348,-205.9489"/>
<polygon fill="#000000" stroke="#000000" points="1055.8481,-205.9488 1059.348,-215.9489 1062.8481,-205.9489 1055.8481,-205.9488"/>
</g>
<!-- LinksDirective  -->
<g id="node22" class="node">
<title>LinksDirective </title>
<polygon fill="#fb8072" stroke="#000000" points="929.9717,-252 826.0283,-252 826.0283,-216 929.9717,-216 929.9717,-252"/>
<text text-anchor="middle" x="878" y="-229.8" font-family="Times,serif" font-size="14.00" fill="#000000">LinksDirective </text>
</g>
<!-- NgxChatModule&#45;&gt;LinksDirective  -->
<g id="edge21" class="edge">
<title>NgxChatModule&#45;&gt;LinksDirective </title>
<path fill="none" stroke="#000000" stroke-dasharray="5,2" d="M1249.615,-180C1134.0792,-180 878,-180 878,-180 878,-180 878,-205.7181 878,-205.7181"/>
<polygon fill="#000000" stroke="#000000" points="874.5001,-205.718 878,-215.7181 881.5001,-205.7181 874.5001,-205.718"/>
</g>
</g>
</svg>
