<?xml version="1.0" encoding="UTF-8" standalone="no"?>
<!DOCTYPE svg PUBLIC "-//W3C//DTD SVG 1.1//EN"
 "http://www.w3.org/Graphics/SVG/1.1/DTD/svg11.dtd">
<!-- Generated by graphviz version 5.0.0 (20220707.1540)
 -->
<!-- Title: dependencies Pages: 1 -->
<svg width="1270pt" height="247pt"
 viewBox="0.00 0.00 1270.00 246.80" xmlns="http://www.w3.org/2000/svg" xmlns:xlink="http://www.w3.org/1999/xlink">
<g id="graph0" class="graph" transform="scale(1 1) rotate(0) translate(4 242.8)">
<title>dependencies</title>
<polygon fill="white" stroke="transparent" points="-4,4 -4,-242.8 1266,-242.8 1266,4 -4,4"/>
<text text-anchor="middle" x="631" y="-8.2" font-family="sans-serif" font-size="14.00">dependencies</text>
<g id="clust1" class="cluster">
<title>cluster_AppModule</title>
<polygon fill="none" stroke="black" stroke-dasharray="1,5" points="8,-32.8 8,-230.8 1254,-230.8 1254,-32.8 8,-32.8"/>
</g>
<g id="clust2" class="cluster">
<title>cluster_AppModule_declarations</title>
<polygon fill="none" stroke="black" points="296,-40.8 296,-92.8 1246,-92.8 1246,-40.8 296,-40.8"/>
</g>
<g id="clust10" class="cluster">
<title>cluster_AppModule_imports</title>
<polygon fill="none" stroke="black" points="16,-40.8 16,-92.8 288,-92.8 288,-40.8 16,-40.8"/>
</g>
<g id="clust12" class="cluster">
<title>cluster_AppModule_bootstrap</title>
<polygon fill="none" stroke="black" points="603,-170.8 603,-222.8 727,-222.8 727,-170.8 603,-170.8"/>
</g>
<!-- AppComponent -->
<g id="node1" class="node">
<title>AppComponent</title>
<polygon fill="#ffffb3" stroke="black" points="1237.94,-84.8 1132.06,-84.8 1132.06,-48.8 1237.94,-48.8 1237.94,-84.8"/>
<text text-anchor="middle" x="1185" y="-62.6" font-family="Times,serif" font-size="14.00">AppComponent</text>
</g>
<!-- AppModule -->
<g id="node8" class="node">
<title>AppModule</title>
<polygon fill="#8dd3c7" stroke="black" points="706.66,-149.8 703.66,-153.8 682.66,-153.8 679.66,-149.8 623.34,-149.8 623.34,-113.8 706.66,-113.8 706.66,-149.8"/>
<text text-anchor="middle" x="665" y="-127.6" font-family="Times,serif" font-size="14.00">AppModule</text>
</g>
<!-- AppComponent&#45;&gt;AppModule -->
<g id="edge1" class="edge">
<title>AppComponent&#45;&gt;AppModule</title>
<path fill="none" stroke="black" d="M1185,-84.81C1185,-107.29 1185,-142.8 1185,-142.8 1185,-142.8 716.67,-142.8 716.67,-142.8"/>
<polygon fill="black" stroke="black" points="716.67,-139.3 706.67,-142.8 716.67,-146.3 716.67,-139.3"/>
</g>
<!-- IndexComponent -->
<g id="node2" class="node">
<title>IndexComponent</title>
<polygon fill="#ffffb3" stroke="black" points="1114.71,-84.8 1001.29,-84.8 1001.29,-48.8 1114.71,-48.8 1114.71,-84.8"/>
<text text-anchor="middle" x="1058" y="-62.6" font-family="Times,serif" font-size="14.00">IndexComponent</text>
</g>
<!-- IndexComponent&#45;&gt;AppModule -->
<g id="edge2" class="edge">
<title>IndexComponent&#45;&gt;AppModule</title>
<path fill="none" stroke="black" d="M1058,-84.93C1058,-105.37 1058,-135.8 1058,-135.8 1058,-135.8 716.69,-135.8 716.69,-135.8"/>
<polygon fill="black" stroke="black" points="716.69,-132.3 706.69,-135.8 716.69,-139.3 716.69,-132.3"/>
</g>
<!-- IqComponent -->
<g id="node3" class="node">
<title>IqComponent</title>
<polygon fill="#ffffb3" stroke="black" points="983.49,-84.8 890.51,-84.8 890.51,-48.8 983.49,-48.8 983.49,-84.8"/>
<text text-anchor="middle" x="937" y="-62.6" font-family="Times,serif" font-size="14.00">IqComponent</text>
</g>
<!-- IqComponent&#45;&gt;AppModule -->
<g id="edge3" class="edge">
<title>IqComponent&#45;&gt;AppModule</title>
<path fill="none" stroke="black" d="M937,-85.07C937,-103.36 937,-128.8 937,-128.8 937,-128.8 716.9,-128.8 716.9,-128.8"/>
<polygon fill="black" stroke="black" points="716.9,-125.3 706.9,-128.8 716.9,-132.3 716.9,-125.3"/>
</g>
<!-- MucComponent -->
<g id="node4" class="node">
<title>MucComponent</title>
<polygon fill="#ffffb3" stroke="black" points="872.49,-84.8 765.51,-84.8 765.51,-48.8 872.49,-48.8 872.49,-84.8"/>
<text text-anchor="middle" x="819" y="-62.6" font-family="Times,serif" font-size="14.00">MucComponent</text>
</g>
<!-- MucComponent&#45;&gt;AppModule -->
<g id="edge4" class="edge">
<title>MucComponent&#45;&gt;AppModule</title>
<path fill="none" stroke="black" d="M819,-84.81C819,-100.85 819,-121.8 819,-121.8 819,-121.8 716.67,-121.8 716.67,-121.8"/>
<polygon fill="black" stroke="black" points="716.67,-118.3 706.67,-121.8 716.67,-125.3 716.67,-118.3"/>
</g>
<!-- MultiUserChatComponent -->
<g id="node5" class="node">
<title>MultiUserChatComponent</title>
<polygon fill="#ffffb3" stroke="black" points="747.82,-84.8 582.18,-84.8 582.18,-48.8 747.82,-48.8 747.82,-84.8"/>
<text text-anchor="middle" x="665" y="-62.6" font-family="Times,serif" font-size="14.00">MultiUserChatComponent</text>
</g>
<!-- MultiUserChatComponent&#45;&gt;AppModule -->
<g id="edge5" class="edge">
<title>MultiUserChatComponent&#45;&gt;AppModule</title>
<path fill="none" stroke="black" d="M665,-84.91C665,-84.91 665,-103.79 665,-103.79"/>
<polygon fill="black" stroke="black" points="661.5,-103.79 665,-113.79 668.5,-103.79 661.5,-103.79"/>
</g>
<!-- SendStanzaComponent -->
<g id="node6" class="node">
<title>SendStanzaComponent</title>
<polygon fill="#ffffb3" stroke="black" points="564.15,-84.8 417.85,-84.8 417.85,-48.8 564.15,-48.8 564.15,-84.8"/>
<text text-anchor="middle" x="491" y="-62.6" font-family="Times,serif" font-size="14.00">SendStanzaComponent</text>
</g>
<!-- SendStanzaComponent&#45;&gt;AppModule -->
<g id="edge6" class="edge">
<title>SendStanzaComponent&#45;&gt;AppModule</title>
<path fill="none" stroke="black" d="M491,-84.81C491,-100.85 491,-121.8 491,-121.8 491,-121.8 613.32,-121.8 613.32,-121.8"/>
<polygon fill="black" stroke="black" points="613.32,-125.3 623.32,-121.8 613.32,-118.3 613.32,-125.3"/>
</g>
<!-- UiComponent -->
<g id="node7" class="node">
<title>UiComponent</title>
<polygon fill="#ffffb3" stroke="black" points="399.83,-84.8 304.17,-84.8 304.17,-48.8 399.83,-48.8 399.83,-84.8"/>
<text text-anchor="middle" x="352" y="-62.6" font-family="Times,serif" font-size="14.00">UiComponent</text>
</g>
<!-- UiComponent&#45;&gt;AppModule -->
<g id="edge7" class="edge">
<title>UiComponent&#45;&gt;AppModule</title>
<path fill="none" stroke="black" d="M352,-85.07C352,-103.36 352,-128.8 352,-128.8 352,-128.8 613.11,-128.8 613.11,-128.8"/>
<polygon fill="black" stroke="black" points="613.11,-132.3 623.11,-128.8 613.11,-125.3 613.11,-132.3"/>
</g>
<!-- AppComponent  -->
<g id="node11" class="node">
<title>AppComponent </title>
<polygon fill="#80b1d3" stroke="black" points="719.44,-214.8 610.56,-214.8 610.56,-178.8 719.44,-178.8 719.44,-214.8"/>
<text text-anchor="middle" x="665" y="-192.6" font-family="Times,serif" font-size="14.00">AppComponent </text>
</g>
<!-- AppModule&#45;&gt;AppComponent  -->
<g id="edge10" class="edge">
<title>AppModule&#45;&gt;AppComponent </title>
<path fill="none" stroke="black" stroke-dasharray="1,5" d="M665,-149.91C665,-149.91 665,-168.79 665,-168.79"/>
<polygon fill="black" stroke="black" points="661.5,-168.79 665,-178.79 668.5,-168.79 661.5,-168.79"/>
</g>
<!-- AppRoutingModule -->
<g id="node9" class="node">
<title>AppRoutingModule</title>
<polygon fill="#8dd3c7" stroke="black" points="280.28,-84.8 277.28,-88.8 256.28,-88.8 253.28,-84.8 151.72,-84.8 151.72,-48.8 280.28,-48.8 280.28,-84.8"/>
<text text-anchor="middle" x="216" y="-62.6" font-family="Times,serif" font-size="14.00">AppRoutingModule</text>
</g>
<!-- AppRoutingModule&#45;&gt;AppModule -->
<g id="edge8" class="edge">
<title>AppRoutingModule&#45;&gt;AppModule</title>
<path fill="none" stroke="black" d="M216,-84.93C216,-105.37 216,-135.8 216,-135.8 216,-135.8 613.16,-135.8 613.16,-135.8"/>
<polygon fill="black" stroke="black" points="613.16,-139.3 623.16,-135.8 613.16,-132.3 613.16,-139.3"/>
</g>
<!-- NgxChatModule -->
<g id="node10" class="node">
<title>NgxChatModule</title>
<polygon fill="#8dd3c7" stroke="black" points="134.1,-84.8 131.1,-88.8 110.1,-88.8 107.1,-84.8 23.9,-84.8 23.9,-48.8 134.1,-48.8 134.1,-84.8"/>
<text text-anchor="middle" x="79" y="-62.6" font-family="Times,serif" font-size="14.00">NgxChatModule</text>
</g>
<!-- NgxChatModule&#45;&gt;AppModule -->
<g id="edge9" class="edge">
<title>NgxChatModule&#45;&gt;AppModule</title>
<path fill="none" stroke="black" d="M79,-84.81C79,-107.29 79,-142.8 79,-142.8 79,-142.8 613.33,-142.8 613.33,-142.8"/>
<polygon fill="black" stroke="black" points="613.33,-146.3 623.33,-142.8 613.33,-139.3 613.33,-146.3"/>
</g>
</g>
</svg>
