<?xml version="1.0" encoding="UTF-8" standalone="no"?>
<!DOCTYPE svg PUBLIC "-//W3C//DTD SVG 1.1//EN"
 "http://www.w3.org/Graphics/SVG/1.1/DTD/svg11.dtd">
<!-- Generated by graphviz version 5.0.0 (20220707.1540)
 -->
<!-- Title: dependencies Pages: 1 -->
<svg width="4164pt" height="323pt"
 viewBox="0.00 0.00 4164.00 322.80" xmlns="http://www.w3.org/2000/svg" xmlns:xlink="http://www.w3.org/1999/xlink">
<g id="graph0" class="graph" transform="scale(1 1) rotate(0) translate(4 318.8)">
<title>dependencies</title>
<polygon fill="white" stroke="transparent" points="-4,4 -4,-318.8 4160,-318.8 4160,4 -4,4"/>
<text text-anchor="middle" x="2078" y="-8.2" font-family="sans-serif" font-size="14.00">dependencies</text>
<g id="clust1" class="cluster">
<title>cluster_AppModule</title>
<polygon fill="none" stroke="black" stroke-dasharray="1,5" points="1899,-108.8 1899,-306.8 3145,-306.8 3145,-108.8 1899,-108.8"/>
</g>
<g id="clust2" class="cluster">
<title>cluster_AppModule_declarations</title>
<polygon fill="none" stroke="black" points="2187,-116.8 2187,-168.8 3137,-168.8 3137,-116.8 2187,-116.8"/>
</g>
<g id="clust10" class="cluster">
<title>cluster_AppModule_imports</title>
<polygon fill="none" stroke="black" points="1907,-116.8 1907,-168.8 2179,-168.8 2179,-116.8 1907,-116.8"/>
</g>
<g id="clust12" class="cluster">
<title>cluster_AppModule_bootstrap</title>
<polygon fill="none" stroke="black" points="2494,-246.8 2494,-298.8 2618,-298.8 2618,-246.8 2494,-246.8"/>
</g>
<g id="clust20" class="cluster">
<title>cluster_NgxChatModule</title>
<polygon fill="none" stroke="black" stroke-dasharray="1,5" points="8,-32.8 8,-100.8 4148,-100.8 4148,-32.8 8,-32.8"/>
</g>
<g id="clust21" class="cluster">
<title>cluster_NgxChatModule_declarations</title>
<polygon fill="none" stroke="black" points="1053,-40.8 1053,-92.8 4140,-92.8 4140,-40.8 1053,-40.8"/>
</g>
<g id="clust40" class="cluster">
<title>cluster_NgxChatModule_exports</title>
<polygon fill="none" stroke="black" points="16,-40.8 16,-92.8 1045,-92.8 1045,-40.8 16,-40.8"/>
</g>
<!-- AppComponent -->
<g id="node1" class="node">
<title>AppComponent</title>
<polygon fill="#ffffb3" stroke="black" points="3128.94,-160.8 3023.06,-160.8 3023.06,-124.8 3128.94,-124.8 3128.94,-160.8"/>
<text text-anchor="middle" x="3076" y="-138.6" font-family="Times,serif" font-size="14.00">AppComponent</text>
</g>
<!-- AppModule -->
<g id="node8" class="node">
<title>AppModule</title>
<polygon fill="#8dd3c7" stroke="black" points="2597.66,-225.8 2594.66,-229.8 2573.66,-229.8 2570.66,-225.8 2514.34,-225.8 2514.34,-189.8 2597.66,-189.8 2597.66,-225.8"/>
<text text-anchor="middle" x="2556" y="-203.6" font-family="Times,serif" font-size="14.00">AppModule</text>
</g>
<!-- AppComponent&#45;&gt;AppModule -->
<g id="edge1" class="edge">
<title>AppComponent&#45;&gt;AppModule</title>
<path fill="none" stroke="black" d="M3076,-160.81C3076,-183.29 3076,-218.8 3076,-218.8 3076,-218.8 2607.67,-218.8 2607.67,-218.8"/>
<polygon fill="black" stroke="black" points="2607.67,-215.3 2597.67,-218.8 2607.67,-222.3 2607.67,-215.3"/>
</g>
<!-- IndexComponent -->
<g id="node2" class="node">
<title>IndexComponent</title>
<polygon fill="#ffffb3" stroke="black" points="3005.71,-160.8 2892.29,-160.8 2892.29,-124.8 3005.71,-124.8 3005.71,-160.8"/>
<text text-anchor="middle" x="2949" y="-138.6" font-family="Times,serif" font-size="14.00">IndexComponent</text>
</g>
<!-- IndexComponent&#45;&gt;AppModule -->
<g id="edge2" class="edge">
<title>IndexComponent&#45;&gt;AppModule</title>
<path fill="none" stroke="black" d="M2949,-160.93C2949,-181.37 2949,-211.8 2949,-211.8 2949,-211.8 2607.69,-211.8 2607.69,-211.8"/>
<polygon fill="black" stroke="black" points="2607.69,-208.3 2597.69,-211.8 2607.69,-215.3 2607.69,-208.3"/>
</g>
<!-- IqComponent -->
<g id="node3" class="node">
<title>IqComponent</title>
<polygon fill="#ffffb3" stroke="black" points="2874.49,-160.8 2781.51,-160.8 2781.51,-124.8 2874.49,-124.8 2874.49,-160.8"/>
<text text-anchor="middle" x="2828" y="-138.6" font-family="Times,serif" font-size="14.00">IqComponent</text>
</g>
<!-- IqComponent&#45;&gt;AppModule -->
<g id="edge3" class="edge">
<title>IqComponent&#45;&gt;AppModule</title>
<path fill="none" stroke="black" d="M2828,-161.07C2828,-179.36 2828,-204.8 2828,-204.8 2828,-204.8 2607.9,-204.8 2607.9,-204.8"/>
<polygon fill="black" stroke="black" points="2607.9,-201.3 2597.9,-204.8 2607.9,-208.3 2607.9,-201.3"/>
</g>
<!-- MucComponent -->
<g id="node4" class="node">
<title>MucComponent</title>
<polygon fill="#ffffb3" stroke="black" points="2763.49,-160.8 2656.51,-160.8 2656.51,-124.8 2763.49,-124.8 2763.49,-160.8"/>
<text text-anchor="middle" x="2710" y="-138.6" font-family="Times,serif" font-size="14.00">MucComponent</text>
</g>
<!-- MucComponent&#45;&gt;AppModule -->
<g id="edge4" class="edge">
<title>MucComponent&#45;&gt;AppModule</title>
<path fill="none" stroke="black" d="M2710,-160.81C2710,-176.85 2710,-197.8 2710,-197.8 2710,-197.8 2607.67,-197.8 2607.67,-197.8"/>
<polygon fill="black" stroke="black" points="2607.67,-194.3 2597.67,-197.8 2607.67,-201.3 2607.67,-194.3"/>
</g>
<!-- MultiUserChatComponent -->
<g id="node5" class="node">
<title>MultiUserChatComponent</title>
<polygon fill="#ffffb3" stroke="black" points="2638.82,-160.8 2473.18,-160.8 2473.18,-124.8 2638.82,-124.8 2638.82,-160.8"/>
<text text-anchor="middle" x="2556" y="-138.6" font-family="Times,serif" font-size="14.00">MultiUserChatComponent</text>
</g>
<!-- MultiUserChatComponent&#45;&gt;AppModule -->
<g id="edge5" class="edge">
<title>MultiUserChatComponent&#45;&gt;AppModule</title>
<path fill="none" stroke="black" d="M2556,-160.91C2556,-160.91 2556,-179.79 2556,-179.79"/>
<polygon fill="black" stroke="black" points="2552.5,-179.79 2556,-189.79 2559.5,-179.79 2552.5,-179.79"/>
</g>
<!-- SendStanzaComponent -->
<g id="node6" class="node">
<title>SendStanzaComponent</title>
<polygon fill="#ffffb3" stroke="black" points="2455.15,-160.8 2308.85,-160.8 2308.85,-124.8 2455.15,-124.8 2455.15,-160.8"/>
<text text-anchor="middle" x="2382" y="-138.6" font-family="Times,serif" font-size="14.00">SendStanzaComponent</text>
</g>
<!-- SendStanzaComponent&#45;&gt;AppModule -->
<g id="edge6" class="edge">
<title>SendStanzaComponent&#45;&gt;AppModule</title>
<path fill="none" stroke="black" d="M2382,-160.81C2382,-176.85 2382,-197.8 2382,-197.8 2382,-197.8 2504.32,-197.8 2504.32,-197.8"/>
<polygon fill="black" stroke="black" points="2504.32,-201.3 2514.32,-197.8 2504.32,-194.3 2504.32,-201.3"/>
</g>
<!-- UiComponent -->
<g id="node7" class="node">
<title>UiComponent</title>
<polygon fill="#ffffb3" stroke="black" points="2290.83,-160.8 2195.17,-160.8 2195.17,-124.8 2290.83,-124.8 2290.83,-160.8"/>
<text text-anchor="middle" x="2243" y="-138.6" font-family="Times,serif" font-size="14.00">UiComponent</text>
</g>
<!-- UiComponent&#45;&gt;AppModule -->
<g id="edge7" class="edge">
<title>UiComponent&#45;&gt;AppModule</title>
<path fill="none" stroke="black" d="M2243,-161.07C2243,-179.36 2243,-204.8 2243,-204.8 2243,-204.8 2504.11,-204.8 2504.11,-204.8"/>
<polygon fill="black" stroke="black" points="2504.11,-208.3 2514.11,-204.8 2504.11,-201.3 2504.11,-208.3"/>
</g>
<!-- AppComponent  -->
<g id="node11" class="node">
<title>AppComponent </title>
<polygon fill="#80b1d3" stroke="black" points="2610.44,-290.8 2501.56,-290.8 2501.56,-254.8 2610.44,-254.8 2610.44,-290.8"/>
<text text-anchor="middle" x="2556" y="-268.6" font-family="Times,serif" font-size="14.00">AppComponent </text>
</g>
<!-- AppModule&#45;&gt;AppComponent  -->
<g id="edge10" class="edge">
<title>AppModule&#45;&gt;AppComponent </title>
<path fill="none" stroke="black" stroke-dasharray="1,5" d="M2556,-225.91C2556,-225.91 2556,-244.79 2556,-244.79"/>
<polygon fill="black" stroke="black" points="2552.5,-244.79 2556,-254.79 2559.5,-244.79 2552.5,-244.79"/>
</g>
<!-- AppRoutingModule -->
<g id="node9" class="node">
<title>AppRoutingModule</title>
<polygon fill="#8dd3c7" stroke="black" points="2171.28,-160.8 2168.28,-164.8 2147.28,-164.8 2144.28,-160.8 2042.72,-160.8 2042.72,-124.8 2171.28,-124.8 2171.28,-160.8"/>
<text text-anchor="middle" x="2107" y="-138.6" font-family="Times,serif" font-size="14.00">AppRoutingModule</text>
</g>
<!-- AppRoutingModule&#45;&gt;AppModule -->
<g id="edge8" class="edge">
<title>AppRoutingModule&#45;&gt;AppModule</title>
<path fill="none" stroke="black" d="M2107,-160.93C2107,-181.37 2107,-211.8 2107,-211.8 2107,-211.8 2504.16,-211.8 2504.16,-211.8"/>
<polygon fill="black" stroke="black" points="2504.16,-215.3 2514.16,-211.8 2504.16,-208.3 2504.16,-215.3"/>
</g>
<!-- NgxChatModule -->
<g id="node10" class="node">
<title>NgxChatModule</title>
<polygon fill="#8dd3c7" stroke="black" points="2025.1,-160.8 2022.1,-164.8 2001.1,-164.8 1998.1,-160.8 1914.9,-160.8 1914.9,-124.8 2025.1,-124.8 2025.1,-160.8"/>
<text text-anchor="middle" x="1970" y="-138.6" font-family="Times,serif" font-size="14.00">NgxChatModule</text>
</g>
<!-- NgxChatModule&#45;&gt;AppModule -->
<g id="edge9" class="edge">
<title>NgxChatModule&#45;&gt;AppModule</title>
<path fill="none" stroke="black" d="M1970,-160.81C1970,-183.29 1970,-218.8 1970,-218.8 1970,-218.8 2504.33,-218.8 2504.33,-218.8"/>
<polygon fill="black" stroke="black" points="2504.33,-222.3 2514.33,-218.8 2504.33,-215.3 2504.33,-222.3"/>
</g>
<!-- ChatComponent  -->
<g id="node29" class="node">
<title>ChatComponent </title>
<polygon fill="#fb8072" stroke="black" points="1036.77,-84.8 925.23,-84.8 925.23,-48.8 1036.77,-48.8 1036.77,-84.8"/>
<text text-anchor="middle" x="981" y="-62.6" font-family="Times,serif" font-size="14.00">ChatComponent </text>
</g>
<!-- NgxChatModule&#45;&gt;ChatComponent  -->
<g id="edge28" class="edge">
<title>NgxChatModule&#45;&gt;ChatComponent </title>
<path fill="none" stroke="black" stroke-dasharray="5,2" d="M1914.71,-142.8C1706.43,-142.8 981,-142.8 981,-142.8 981,-142.8 981,-94.81 981,-94.81"/>
<polygon fill="black" stroke="black" points="984.5,-94.81 981,-84.81 977.5,-94.81 984.5,-94.81"/>
</g>
<!-- ChatMessageInputComponent  -->
<g id="node30" class="node">
<title>ChatMessageInputComponent </title>
<polygon fill="#fb8072" stroke="black" points="906.81,-84.8 717.19,-84.8 717.19,-48.8 906.81,-48.8 906.81,-84.8"/>
<text text-anchor="middle" x="812" y="-62.6" font-family="Times,serif" font-size="14.00">ChatMessageInputComponent </text>
</g>
<!-- NgxChatModule&#45;&gt;ChatMessageInputComponent  -->
<g id="edge29" class="edge">
<title>NgxChatModule&#45;&gt;ChatMessageInputComponent </title>
<path fill="none" stroke="black" stroke-dasharray="5,2" d="M1914.93,-145.8C1684.79,-145.8 812,-145.8 812,-145.8 812,-145.8 812,-95.12 812,-95.12"/>
<polygon fill="black" stroke="black" points="815.5,-95.12 812,-85.12 808.5,-95.12 815.5,-95.12"/>
</g>
<!-- ChatMessageListComponent  -->
<g id="node31" class="node">
<title>ChatMessageListComponent </title>
<polygon fill="#fb8072" stroke="black" points="699.04,-84.8 516.96,-84.8 516.96,-48.8 699.04,-48.8 699.04,-84.8"/>
<text text-anchor="middle" x="608" y="-62.6" font-family="Times,serif" font-size="14.00">ChatMessageListComponent </text>
</g>
<!-- NgxChatModule&#45;&gt;ChatMessageListComponent  -->
<g id="edge30" class="edge">
<title>NgxChatModule&#45;&gt;ChatMessageListComponent </title>
<path fill="none" stroke="black" stroke-dasharray="5,2" d="M1914.92,-148.8C1660.11,-148.8 608,-148.8 608,-148.8 608,-148.8 608,-95 608,-95"/>
<polygon fill="black" stroke="black" points="611.5,-95 608,-85 604.5,-95 611.5,-95"/>
</g>
<!-- ChatMessageSimpleComponent  -->
<g id="node32" class="node">
<title>ChatMessageSimpleComponent </title>
<polygon fill="#fb8072" stroke="black" points="498.93,-84.8 299.07,-84.8 299.07,-48.8 498.93,-48.8 498.93,-84.8"/>
<text text-anchor="middle" x="399" y="-62.6" font-family="Times,serif" font-size="14.00">ChatMessageSimpleComponent </text>
</g>
<!-- NgxChatModule&#45;&gt;ChatMessageSimpleComponent  -->
<g id="edge31" class="edge">
<title>NgxChatModule&#45;&gt;ChatMessageSimpleComponent </title>
<path fill="none" stroke="black" stroke-dasharray="5,2" d="M1914.55,-151.8C1635.59,-151.8 399,-151.8 399,-151.8 399,-151.8 399,-94.83 399,-94.83"/>
<polygon fill="black" stroke="black" points="402.5,-94.83 399,-84.83 395.5,-94.83 402.5,-94.83"/>
</g>
<!-- FileDropComponent  -->
<g id="node33" class="node">
<title>FileDropComponent </title>
<polygon fill="#fb8072" stroke="black" points="280.88,-84.8 145.12,-84.8 145.12,-48.8 280.88,-48.8 280.88,-84.8"/>
<text text-anchor="middle" x="213" y="-62.6" font-family="Times,serif" font-size="14.00">FileDropComponent </text>
</g>
<!-- NgxChatModule&#45;&gt;FileDropComponent  -->
<g id="edge32" class="edge">
<title>NgxChatModule&#45;&gt;FileDropComponent </title>
<path fill="none" stroke="black" stroke-dasharray="5,2" d="M1914.51,-154.8C1615.86,-154.8 213,-154.8 213,-154.8 213,-154.8 213,-95.03 213,-95.03"/>
<polygon fill="black" stroke="black" points="216.5,-95.03 213,-85.03 209.5,-95.03 216.5,-95.03"/>
</g>
<!-- LinksDirective  -->
<g id="node34" class="node">
<title>LinksDirective </title>
<polygon fill="#fb8072" stroke="black" points="127.97,-84.8 24.03,-84.8 24.03,-48.8 127.97,-48.8 127.97,-84.8"/>
<text text-anchor="middle" x="76" y="-62.6" font-family="Times,serif" font-size="14.00">LinksDirective </text>
</g>
<!-- NgxChatModule&#45;&gt;LinksDirective  -->
<g id="edge33" class="edge">
<title>NgxChatModule&#45;&gt;LinksDirective </title>
<path fill="none" stroke="black" stroke-dasharray="5,2" d="M1914.85,-157.8C1603.16,-157.8 76,-157.8 76,-157.8 76,-157.8 76,-95.22 76,-95.22"/>
<polygon fill="black" stroke="black" points="79.5,-95.22 76,-85.22 72.5,-95.22 79.5,-95.22"/>
</g>
<!-- ChatAvatarComponent -->
<g id="node12" class="node">
<title>ChatAvatarComponent</title>
<polygon fill="#ffffb3" stroke="black" points="4131.86,-84.8 3986.14,-84.8 3986.14,-48.8 4131.86,-48.8 4131.86,-84.8"/>
<text text-anchor="middle" x="4059" y="-62.6" font-family="Times,serif" font-size="14.00">ChatAvatarComponent</text>
</g>
<!-- ChatAvatarComponent&#45;&gt;NgxChatModule -->
<g id="edge11" class="edge">
<title>ChatAvatarComponent&#45;&gt;NgxChatModule</title>
<path fill="none" stroke="black" d="M4059,-84.81C4059,-100.85 4059,-121.8 4059,-121.8 4059,-121.8 2016.58,-121.8 2016.58,-121.8 2016.58,-121.8 2016.58,-122.09 2016.58,-122.09"/>
<polygon fill="black" stroke="black" points="2013.08,-114.72 2016.58,-124.72 2020.08,-114.72 2013.08,-114.72"/>
</g>
<!-- ChatComponent -->
<g id="node13" class="node">
<title>ChatComponent</title>
<polygon fill="#ffffb3" stroke="black" points="3967.77,-84.8 3860.23,-84.8 3860.23,-48.8 3967.77,-48.8 3967.77,-84.8"/>
<text text-anchor="middle" x="3914" y="-62.6" font-family="Times,serif" font-size="14.00">ChatComponent</text>
</g>
<!-- ChatComponent&#45;&gt;NgxChatModule -->
<g id="edge12" class="edge">
<title>ChatComponent&#45;&gt;NgxChatModule</title>
<path fill="none" stroke="black" d="M3914,-84.99C3914,-99.98 3914,-118.8 3914,-118.8 3914,-118.8 2008.11,-118.8 2008.11,-118.8 2008.11,-118.8 2008.11,-119.38 2008.11,-119.38"/>
<polygon fill="black" stroke="black" points="2004.61,-114.61 2008.11,-124.61 2011.61,-114.61 2004.61,-114.61"/>
</g>
<!-- ChatMessageComponent -->
<g id="node14" class="node">
<title>ChatMessageComponent</title>
<polygon fill="#ffffb3" stroke="black" points="3842.26,-84.8 3685.74,-84.8 3685.74,-48.8 3842.26,-48.8 3842.26,-84.8"/>
<text text-anchor="middle" x="3764" y="-62.6" font-family="Times,serif" font-size="14.00">ChatMessageComponent</text>
</g>
<!-- ChatMessageComponent&#45;&gt;NgxChatModule -->
<g id="edge13" class="edge">
<title>ChatMessageComponent&#45;&gt;NgxChatModule</title>
<path fill="none" stroke="black" d="M3764,-84.95C3764,-98.54 3764,-114.8 3764,-114.8 3764,-114.8 1999.64,-114.8 1999.64,-114.8 1999.64,-114.8 1999.64,-115.78 1999.64,-115.78"/>
<polygon fill="black" stroke="black" points="1996.14,-114.59 1999.64,-124.59 2003.14,-114.59 1996.14,-114.59"/>
</g>
<!-- ChatMessageInputComponent -->
<g id="node15" class="node">
<title>ChatMessageInputComponent</title>
<polygon fill="#ffffb3" stroke="black" points="3667.31,-84.8 3480.69,-84.8 3480.69,-48.8 3667.31,-48.8 3667.31,-84.8"/>
<text text-anchor="middle" x="3574" y="-62.6" font-family="Times,serif" font-size="14.00">ChatMessageInputComponent</text>
</g>
<!-- ChatMessageInputComponent&#45;&gt;NgxChatModule -->
<g id="edge14" class="edge">
<title>ChatMessageInputComponent&#45;&gt;NgxChatModule</title>
<path fill="none" stroke="black" d="M3574,-84.84C3574,-97.36 3574,-111.8 3574,-111.8 3574,-111.8 1991.17,-111.8 1991.17,-111.8 1991.17,-111.8 1991.17,-114.77 1991.17,-114.77"/>
<polygon fill="black" stroke="black" points="1987.67,-114.77 1991.17,-124.77 1994.67,-114.77 1987.67,-114.77"/>
</g>
<!-- ChatMessageLinkComponent -->
<g id="node16" class="node">
<title>ChatMessageLinkComponent</title>
<polygon fill="#ffffb3" stroke="black" points="3462.7,-84.8 3279.3,-84.8 3279.3,-48.8 3462.7,-48.8 3462.7,-84.8"/>
<text text-anchor="middle" x="3371" y="-62.6" font-family="Times,serif" font-size="14.00">ChatMessageLinkComponent</text>
</g>
<!-- ChatMessageLinkComponent&#45;&gt;NgxChatModule -->
<g id="edge15" class="edge">
<title>ChatMessageLinkComponent&#45;&gt;NgxChatModule</title>
<path fill="none" stroke="black" d="M3371,-84.86C3371,-96.24 3371,-108.8 3371,-108.8 3371,-108.8 1982.7,-108.8 1982.7,-108.8 1982.7,-108.8 1982.7,-114.61 1982.7,-114.61"/>
<polygon fill="black" stroke="black" points="1979.2,-114.61 1982.7,-124.61 1986.2,-114.61 1979.2,-114.61"/>
</g>
<!-- ChatMessageListComponent -->
<g id="node17" class="node">
<title>ChatMessageListComponent</title>
<polygon fill="#ffffb3" stroke="black" points="3261.04,-84.8 3082.96,-84.8 3082.96,-48.8 3261.04,-48.8 3261.04,-84.8"/>
<text text-anchor="middle" x="3172" y="-62.6" font-family="Times,serif" font-size="14.00">ChatMessageListComponent</text>
</g>
<!-- ChatMessageListComponent&#45;&gt;NgxChatModule -->
<g id="edge16" class="edge">
<title>ChatMessageListComponent&#45;&gt;NgxChatModule</title>
<path fill="none" stroke="black" d="M3105.73,-84.91C3105.73,-94.7 3105.73,-104.8 3105.73,-104.8 3105.73,-104.8 1974.23,-104.8 1974.23,-104.8 1974.23,-104.8 1974.23,-114.69 1974.23,-114.69"/>
<polygon fill="black" stroke="black" points="1970.73,-114.69 1974.23,-124.69 1977.73,-114.69 1970.73,-114.69"/>
</g>
<!-- ChatMessageSimpleComponent -->
<g id="node18" class="node">
<title>ChatMessageSimpleComponent</title>
<polygon fill="#ffffb3" stroke="black" points="3065.43,-84.8 2868.57,-84.8 2868.57,-48.8 3065.43,-48.8 3065.43,-84.8"/>
<text text-anchor="middle" x="2967" y="-62.6" font-family="Times,serif" font-size="14.00">ChatMessageSimpleComponent</text>
</g>
<!-- ChatMessageSimpleComponent&#45;&gt;NgxChatModule -->
<g id="edge17" class="edge">
<title>ChatMessageSimpleComponent&#45;&gt;NgxChatModule</title>
<path fill="none" stroke="black" d="M2883.45,-85.12C2883.45,-93.59 2883.45,-101.8 2883.45,-101.8 2883.45,-101.8 1965.77,-101.8 1965.77,-101.8 1965.77,-101.8 1965.77,-114.7 1965.77,-114.7"/>
<polygon fill="black" stroke="black" points="1962.27,-114.7 1965.77,-124.7 1969.27,-114.7 1962.27,-114.7"/>
</g>
<!-- ChatMessageTextComponent -->
<g id="node19" class="node">
<title>ChatMessageTextComponent</title>
<polygon fill="#ffffb3" stroke="black" points="2851.41,-84.8 2668.59,-84.8 2668.59,-48.8 2851.41,-48.8 2851.41,-84.8"/>
<text text-anchor="middle" x="2760" y="-62.6" font-family="Times,serif" font-size="14.00">ChatMessageTextComponent</text>
</g>
<!-- ChatMessageTextComponent&#45;&gt;NgxChatModule -->
<g id="edge18" class="edge">
<title>ChatMessageTextComponent&#45;&gt;NgxChatModule</title>
<path fill="none" stroke="black" d="M2716.14,-85.04C2716.14,-92.23 2716.14,-98.8 2716.14,-98.8 2716.14,-98.8 1957.3,-98.8 1957.3,-98.8 1957.3,-98.8 1957.3,-114.65 1957.3,-114.65"/>
<polygon fill="black" stroke="black" points="1953.8,-114.65 1957.3,-124.65 1960.8,-114.65 1953.8,-114.65"/>
</g>
<!-- ChatVideoWindowComponent -->
<g id="node20" class="node">
<title>ChatVideoWindowComponent</title>
<polygon fill="#ffffb3" stroke="black" points="2651.2,-84.8 2460.8,-84.8 2460.8,-48.8 2651.2,-48.8 2651.2,-84.8"/>
<text text-anchor="middle" x="2556" y="-62.6" font-family="Times,serif" font-size="14.00">ChatVideoWindowComponent</text>
</g>
<!-- ChatVideoWindowComponent&#45;&gt;NgxChatModule -->
<g id="edge19" class="edge">
<title>ChatVideoWindowComponent&#45;&gt;NgxChatModule</title>
<path fill="none" stroke="black" d="M2467.12,-85.01C2467.12,-90.35 2467.12,-94.8 2467.12,-94.8 2467.12,-94.8 1948.83,-94.8 1948.83,-94.8 1948.83,-94.8 1948.83,-114.65 1948.83,-114.65"/>
<polygon fill="black" stroke="black" points="1945.33,-114.65 1948.83,-124.65 1952.33,-114.65 1945.33,-114.65"/>
</g>
<!-- ChatWindowComponent -->
<g id="node21" class="node">
<title>ChatWindowComponent</title>
<polygon fill="#ffffb3" stroke="black" points="2442.99,-84.8 2287.01,-84.8 2287.01,-48.8 2442.99,-48.8 2442.99,-84.8"/>
<text text-anchor="middle" x="2365" y="-62.6" font-family="Times,serif" font-size="14.00">ChatWindowComponent</text>
</g>
<!-- ChatWindowComponent&#45;&gt;NgxChatModule -->
<g id="edge20" class="edge">
<title>ChatWindowComponent&#45;&gt;NgxChatModule</title>
<path fill="none" stroke="black" d="M2299.67,-84.97C2299.67,-88.85 2299.67,-91.8 2299.67,-91.8 2299.67,-91.8 1940.36,-91.8 1940.36,-91.8 1940.36,-91.8 1940.36,-114.68 1940.36,-114.68"/>
<polygon fill="black" stroke="black" points="1936.86,-114.68 1940.36,-124.68 1943.86,-114.68 1936.86,-114.68"/>
</g>
<!-- ChatWindowFrameComponent -->
<g id="node22" class="node">
<title>ChatWindowFrameComponent</title>
<polygon fill="#ffffb3" stroke="black" points="2268.75,-84.8 2077.25,-84.8 2077.25,-48.8 2268.75,-48.8 2268.75,-84.8"/>
<text text-anchor="middle" x="2173" y="-62.6" font-family="Times,serif" font-size="14.00">ChatWindowFrameComponent</text>
</g>
<!-- ChatWindowFrameComponent&#45;&gt;NgxChatModule -->
<g id="edge21" class="edge">
<title>ChatWindowFrameComponent&#45;&gt;NgxChatModule</title>
<path fill="none" stroke="black" d="M2124.26,-84.97C2124.26,-87.25 2124.26,-88.8 2124.26,-88.8 2124.26,-88.8 1931.89,-88.8 1931.89,-88.8 1931.89,-88.8 1931.89,-114.52 1931.89,-114.52"/>
<polygon fill="black" stroke="black" points="1928.39,-114.52 1931.89,-124.52 1935.39,-114.52 1928.39,-114.52"/>
</g>
<!-- ChatWindowListComponent -->
<g id="node23" class="node">
<title>ChatWindowListComponent</title>
<polygon fill="#ffffb3" stroke="black" points="2058.77,-84.8 1881.23,-84.8 1881.23,-48.8 2058.77,-48.8 2058.77,-84.8"/>
<text text-anchor="middle" x="1970" y="-62.6" font-family="Times,serif" font-size="14.00">ChatWindowListComponent</text>
</g>
<!-- ChatWindowListComponent&#45;&gt;NgxChatModule -->
<g id="edge22" class="edge">
<title>ChatWindowListComponent&#45;&gt;NgxChatModule</title>
<path fill="none" stroke="black" d="M1923.42,-84.81C1923.42,-84.81 1923.42,-114.65 1923.42,-114.65"/>
<polygon fill="black" stroke="black" points="1919.92,-114.65 1923.42,-124.65 1926.92,-114.65 1919.92,-114.65"/>
</g>
<!-- FileDropComponent -->
<g id="node24" class="node">
<title>FileDropComponent</title>
<polygon fill="#ffffb3" stroke="black" points="1862.88,-84.8 1731.12,-84.8 1731.12,-48.8 1862.88,-48.8 1862.88,-84.8"/>
<text text-anchor="middle" x="1797" y="-62.6" font-family="Times,serif" font-size="14.00">FileDropComponent</text>
</g>
<!-- FileDropComponent&#45;&gt;NgxChatModule -->
<g id="edge23" class="edge">
<title>FileDropComponent&#45;&gt;NgxChatModule</title>
<path fill="none" stroke="black" d="M1797,-85.1C1797,-103.07 1797,-127.8 1797,-127.8 1797,-127.8 1904.79,-127.8 1904.79,-127.8"/>
<polygon fill="black" stroke="black" points="1904.79,-131.3 1914.79,-127.8 1904.79,-124.3 1904.79,-131.3"/>
</g>
<!-- IntersectionObserverDirective -->
<g id="node25" class="node">
<title>IntersectionObserverDirective</title>
<polygon fill="#ffffb3" stroke="black" points="1712.98,-84.8 1527.02,-84.8 1527.02,-48.8 1712.98,-48.8 1712.98,-84.8"/>
<text text-anchor="middle" x="1620" y="-62.6" font-family="Times,serif" font-size="14.00">IntersectionObserverDirective</text>
</g>
<!-- IntersectionObserverDirective&#45;&gt;NgxChatModule -->
<g id="edge24" class="edge">
<title>IntersectionObserverDirective&#45;&gt;NgxChatModule</title>
<path fill="none" stroke="black" d="M1620,-84.97C1620,-103.89 1620,-130.8 1620,-130.8 1620,-130.8 1904.93,-130.8 1904.93,-130.8"/>
<polygon fill="black" stroke="black" points="1904.93,-134.3 1914.93,-130.8 1904.93,-127.3 1904.93,-134.3"/>
</g>
<!-- LinksDirective -->
<g id="node26" class="node">
<title>LinksDirective</title>
<polygon fill="#ffffb3" stroke="black" points="1508.97,-84.8 1409.03,-84.8 1409.03,-48.8 1508.97,-48.8 1508.97,-84.8"/>
<text text-anchor="middle" x="1459" y="-62.6" font-family="Times,serif" font-size="14.00">LinksDirective</text>
</g>
<!-- LinksDirective&#45;&gt;NgxChatModule -->
<g id="edge25" class="edge">
<title>LinksDirective&#45;&gt;NgxChatModule</title>
<path fill="none" stroke="black" d="M1459,-85.11C1459,-104.95 1459,-133.8 1459,-133.8 1459,-133.8 1904.83,-133.8 1904.83,-133.8"/>
<polygon fill="black" stroke="black" points="1904.83,-137.3 1914.83,-133.8 1904.83,-130.3 1904.83,-137.3"/>
</g>
<!-- RosterListComponent -->
<g id="node27" class="node">
<title>RosterListComponent</title>
<polygon fill="#ffffb3" stroke="black" points="1390.66,-84.8 1251.34,-84.8 1251.34,-48.8 1390.66,-48.8 1390.66,-84.8"/>
<text text-anchor="middle" x="1321" y="-62.6" font-family="Times,serif" font-size="14.00">RosterListComponent</text>
</g>
<!-- RosterListComponent&#45;&gt;NgxChatModule -->
<g id="edge26" class="edge">
<title>RosterListComponent&#45;&gt;NgxChatModule</title>
<path fill="none" stroke="black" d="M1321,-84.83C1321,-105.57 1321,-136.8 1321,-136.8 1321,-136.8 1904.95,-136.8 1904.95,-136.8"/>
<polygon fill="black" stroke="black" points="1904.95,-140.3 1914.95,-136.8 1904.95,-133.3 1904.95,-140.3"/>
</g>
<!-- RosterRecipientComponent -->
<g id="node28" class="node">
<title>RosterRecipientComponent</title>
<polygon fill="#ffffb3" stroke="black" points="1232.53,-84.8 1061.47,-84.8 1061.47,-48.8 1232.53,-48.8 1232.53,-84.8"/>
<text text-anchor="middle" x="1147" y="-62.6" font-family="Times,serif" font-size="14.00">RosterRecipientComponent</text>
</g>
<!-- RosterRecipientComponent&#45;&gt;NgxChatModule -->
<g id="edge27" class="edge">
<title>RosterRecipientComponent&#45;&gt;NgxChatModule</title>
<path fill="none" stroke="black" d="M1147,-84.84C1147,-106.46 1147,-139.8 1147,-139.8 1147,-139.8 1904.72,-139.8 1904.72,-139.8"/>
<polygon fill="black" stroke="black" points="1904.72,-143.3 1914.72,-139.8 1904.72,-136.3 1904.72,-143.3"/>
</g>
</g>
</svg>
