<?xml version="1.0" encoding="UTF-8" standalone="no"?>
<!DOCTYPE svg PUBLIC "-//W3C//DTD SVG 1.1//EN"
 "http://www.w3.org/Graphics/SVG/1.1/DTD/svg11.dtd">
<!-- Generated by graphviz version 2.40.1 (20161225.0304)
 -->
<!-- Title: dependencies Pages: 1 -->
<svg width="2331pt" height="284pt"
 viewBox="0.00 0.00 2331.00 284.00" xmlns="http://www.w3.org/2000/svg" xmlns:xlink="http://www.w3.org/1999/xlink">
<g id="graph0" class="graph" transform="scale(1 1) rotate(0) translate(4 280)">
<title>dependencies</title>
<polygon fill="#ffffff" stroke="transparent" points="-4,4 -4,-280 2327,-280 2327,4 -4,4"/>
<text text-anchor="start" x="1140.5091" y="-42.4" font-family="sans-serif" font-weight="bold" font-size="14.00" fill="#000000">Legend</text>
<polygon fill="#ffffb3" stroke="transparent" points="927.5,-10 927.5,-30 947.5,-30 947.5,-10 927.5,-10"/>
<text text-anchor="start" x="951.129" y="-15.4" font-family="sans-serif" font-size="14.00" fill="#000000"> &#160;Declarations</text>
<polygon fill="#8dd3c7" stroke="transparent" points="1040.5,-10 1040.5,-30 1060.5,-30 1060.5,-10 1040.5,-10"/>
<text text-anchor="start" x="1064.2251" y="-15.4" font-family="sans-serif" font-size="14.00" fill="#000000"> &#160;Module</text>
<polygon fill="#80b1d3" stroke="transparent" points="1126.5,-10 1126.5,-30 1146.5,-30 1146.5,-10 1126.5,-10"/>
<text text-anchor="start" x="1150.2812" y="-15.4" font-family="sans-serif" font-size="14.00" fill="#000000"> &#160;Bootstrap</text>
<polygon fill="#fdb462" stroke="transparent" points="1223.5,-10 1223.5,-30 1243.5,-30 1243.5,-10 1223.5,-10"/>
<text text-anchor="start" x="1247.1732" y="-15.4" font-family="sans-serif" font-size="14.00" fill="#000000"> &#160;Providers</text>
<polygon fill="#fb8072" stroke="transparent" points="1319.5,-10 1319.5,-30 1339.5,-30 1339.5,-10 1319.5,-10"/>
<text text-anchor="start" x="1343.2258" y="-15.4" font-family="sans-serif" font-size="14.00" fill="#000000"> &#160;Exports</text>
<g id="clust1" class="cluster">
<title>cluster_NgxChatModule</title>
<polygon fill="none" stroke="#000000" stroke-dasharray="1,5" points="8,-70 8,-268 2315,-268 2315,-70 8,-70"/>
</g>
<g id="clust2" class="cluster">
<title>cluster_NgxChatModule_declarations</title>
<polygon fill="none" stroke="#000000" points="16,-78 16,-130 2307,-130 2307,-78 16,-78"/>
</g>
<g id="clust17" class="cluster">
<title>cluster_NgxChatModule_exports</title>
<polygon fill="none" stroke="#000000" points="611,-208 611,-260 1640,-260 1640,-208 611,-208"/>
</g>
<!-- ChatComponent -->
<g id="node1" class="node">
<title>ChatComponent</title>
<polygon fill="#ffffb3" stroke="#000000" points="2298.7744,-122 2191.2256,-122 2191.2256,-86 2298.7744,-86 2298.7744,-122"/>
<text text-anchor="middle" x="2245" y="-99.8" font-family="Times,serif" font-size="14.00" fill="#000000">ChatComponent</text>
</g>
<!-- NgxChatModule -->
<g id="node14" class="node">
<title>NgxChatModule</title>
<polygon fill="#8dd3c7" stroke="#000000" points="1153.0982,-187 1150.0982,-191 1129.0982,-191 1126.0982,-187 1042.9018,-187 1042.9018,-151 1153.0982,-151 1153.0982,-187"/>
<text text-anchor="middle" x="1098" y="-164.8" font-family="Times,serif" font-size="14.00" fill="#000000">NgxChatModule</text>
</g>
<!-- ChatComponent&#45;&gt;NgxChatModule -->
<g id="edge1" class="edge">
<title>ChatComponent&#45;&gt;NgxChatModule</title>
<path fill="none" stroke="#000000" d="M2245,-122.2843C2245,-143.3211 2245,-175 2245,-175 2245,-175 1163.3222,-175 1163.3222,-175"/>
<polygon fill="#000000" stroke="#000000" points="1163.3222,-171.5001 1153.3222,-175 1163.3222,-178.5001 1163.3222,-171.5001"/>
</g>
<!-- ChatMessageComponent -->
<g id="node2" class="node">
<title>ChatMessageComponent</title>
<polygon fill="#ffffb3" stroke="#000000" points="2173.252,-122 2016.748,-122 2016.748,-86 2173.252,-86 2173.252,-122"/>
<text text-anchor="middle" x="2095" y="-99.8" font-family="Times,serif" font-size="14.00" fill="#000000">ChatMessageComponent</text>
</g>
<!-- ChatMessageComponent&#45;&gt;NgxChatModule -->
<g id="edge2" class="edge">
<title>ChatMessageComponent&#45;&gt;NgxChatModule</title>
<path fill="none" stroke="#000000" d="M2095,-122.308C2095,-142.1455 2095,-171 2095,-171 2095,-171 1163.3808,-171 1163.3808,-171"/>
<polygon fill="#000000" stroke="#000000" points="1163.3808,-167.5001 1153.3808,-171 1163.3807,-174.5001 1163.3808,-167.5001"/>
</g>
<!-- ChatMessageInputComponent -->
<g id="node3" class="node">
<title>ChatMessageInputComponent</title>
<polygon fill="#ffffb3" stroke="#000000" points="1998.3032,-122 1811.6968,-122 1811.6968,-86 1998.3032,-86 1998.3032,-122"/>
<text text-anchor="middle" x="1905" y="-99.8" font-family="Times,serif" font-size="14.00" fill="#000000">ChatMessageInputComponent</text>
</g>
<!-- ChatMessageInputComponent&#45;&gt;NgxChatModule -->
<g id="edge3" class="edge">
<title>ChatMessageInputComponent&#45;&gt;NgxChatModule</title>
<path fill="none" stroke="#000000" d="M1905,-122.2222C1905,-140.8285 1905,-167 1905,-167 1905,-167 1163.1508,-167 1163.1508,-167"/>
<polygon fill="#000000" stroke="#000000" points="1163.1508,-163.5001 1153.1508,-167 1163.1507,-170.5001 1163.1508,-163.5001"/>
</g>
<!-- ChatMessageLinkComponent -->
<g id="node4" class="node">
<title>ChatMessageLinkComponent</title>
<polygon fill="#ffffb3" stroke="#000000" points="1793.6951,-122 1610.3049,-122 1610.3049,-86 1793.6951,-86 1793.6951,-122"/>
<text text-anchor="middle" x="1702" y="-99.8" font-family="Times,serif" font-size="14.00" fill="#000000">ChatMessageLinkComponent</text>
</g>
<!-- ChatMessageLinkComponent&#45;&gt;NgxChatModule -->
<g id="edge4" class="edge">
<title>ChatMessageLinkComponent&#45;&gt;NgxChatModule</title>
<path fill="none" stroke="#000000" d="M1621.0198,-122.0225C1621.0198,-139.3734 1621.0198,-163 1621.0198,-163 1621.0198,-163 1163.4771,-163 1163.4771,-163"/>
<polygon fill="#000000" stroke="#000000" points="1163.4772,-159.5001 1153.4771,-163 1163.4771,-166.5001 1163.4772,-159.5001"/>
</g>
<!-- ChatMessageListComponent -->
<g id="node5" class="node">
<title>ChatMessageListComponent</title>
<polygon fill="#ffffb3" stroke="#000000" points="1592.0308,-122 1413.9692,-122 1413.9692,-86 1592.0308,-86 1592.0308,-122"/>
<text text-anchor="middle" x="1503" y="-99.8" font-family="Times,serif" font-size="14.00" fill="#000000">ChatMessageListComponent</text>
</g>
<!-- ChatMessageListComponent&#45;&gt;NgxChatModule -->
<g id="edge5" class="edge">
<title>ChatMessageListComponent&#45;&gt;NgxChatModule</title>
<path fill="none" stroke="#000000" d="M1457.8182,-122.0091C1457.8182,-138.0494 1457.8182,-159 1457.8182,-159 1457.8182,-159 1163.433,-159 1163.433,-159"/>
<polygon fill="#000000" stroke="#000000" points="1163.4331,-155.5001 1153.433,-159 1163.433,-162.5001 1163.4331,-155.5001"/>
</g>
<!-- ChatMessageTextComponent -->
<g id="node6" class="node">
<title>ChatMessageTextComponent</title>
<polygon fill="#ffffb3" stroke="#000000" points="1396.4101,-122 1213.5899,-122 1213.5899,-86 1396.4101,-86 1396.4101,-122"/>
<text text-anchor="middle" x="1305" y="-99.8" font-family="Times,serif" font-size="14.00" fill="#000000">ChatMessageTextComponent</text>
</g>
<!-- ChatMessageTextComponent&#45;&gt;NgxChatModule -->
<g id="edge6" class="edge">
<title>ChatMessageTextComponent&#45;&gt;NgxChatModule</title>
<path fill="none" stroke="#000000" d="M1253.9052,-122.1243C1253.9052,-136.7832 1253.9052,-155 1253.9052,-155 1253.9052,-155 1163.4053,-155 1163.4053,-155"/>
<polygon fill="#000000" stroke="#000000" points="1163.4053,-151.5001 1153.4053,-155 1163.4053,-158.5001 1163.4053,-151.5001"/>
</g>
<!-- ChatRoomMessagesComponent -->
<g id="node7" class="node">
<title>ChatRoomMessagesComponent</title>
<polygon fill="#ffffb3" stroke="#000000" points="1196.4241,-122 999.5759,-122 999.5759,-86 1196.4241,-86 1196.4241,-122"/>
<text text-anchor="middle" x="1098" y="-99.8" font-family="Times,serif" font-size="14.00" fill="#000000">ChatRoomMessagesComponent</text>
</g>
<!-- ChatRoomMessagesComponent&#45;&gt;NgxChatModule -->
<g id="edge7" class="edge">
<title>ChatRoomMessagesComponent&#45;&gt;NgxChatModule</title>
<path fill="none" stroke="#000000" d="M1098,-122.1061C1098,-122.1061 1098,-140.991 1098,-140.991"/>
<polygon fill="#000000" stroke="#000000" points="1094.5001,-140.9909 1098,-150.991 1101.5001,-140.991 1094.5001,-140.9909"/>
</g>
<!-- ChatWindowComponent -->
<g id="node8" class="node">
<title>ChatWindowComponent</title>
<polygon fill="#ffffb3" stroke="#000000" points="981.986,-122 826.014,-122 826.014,-86 981.986,-86 981.986,-122"/>
<text text-anchor="middle" x="904" y="-99.8" font-family="Times,serif" font-size="14.00" fill="#000000">ChatWindowComponent</text>
</g>
<!-- ChatWindowComponent&#45;&gt;NgxChatModule -->
<g id="edge8" class="edge">
<title>ChatWindowComponent&#45;&gt;NgxChatModule</title>
<path fill="none" stroke="#000000" d="M938.0156,-122.1243C938.0156,-136.7832 938.0156,-155 938.0156,-155 938.0156,-155 1032.9424,-155 1032.9424,-155"/>
<polygon fill="#000000" stroke="#000000" points="1032.9425,-158.5001 1042.9424,-155 1032.9424,-151.5001 1032.9425,-158.5001"/>
</g>
<!-- ChatWindowListComponent -->
<g id="node9" class="node">
<title>ChatWindowListComponent</title>
<polygon fill="#ffffb3" stroke="#000000" points="807.7646,-122 630.2354,-122 630.2354,-86 807.7646,-86 807.7646,-122"/>
<text text-anchor="middle" x="719" y="-99.8" font-family="Times,serif" font-size="14.00" fill="#000000">ChatWindowListComponent</text>
</g>
<!-- ChatWindowListComponent&#45;&gt;NgxChatModule -->
<g id="edge9" class="edge">
<title>ChatWindowListComponent&#45;&gt;NgxChatModule</title>
<path fill="none" stroke="#000000" d="M774.0966,-122.0091C774.0966,-138.0494 774.0966,-159 774.0966,-159 774.0966,-159 1032.6871,-159 1032.6871,-159"/>
<polygon fill="#000000" stroke="#000000" points="1032.6871,-162.5001 1042.6871,-159 1032.687,-155.5001 1032.6871,-162.5001"/>
</g>
<!-- FileDropComponent -->
<g id="node10" class="node">
<title>FileDropComponent</title>
<polygon fill="#ffffb3" stroke="#000000" points="611.8781,-122 480.1219,-122 480.1219,-86 611.8781,-86 611.8781,-122"/>
<text text-anchor="middle" x="546" y="-99.8" font-family="Times,serif" font-size="14.00" fill="#000000">FileDropComponent</text>
</g>
<!-- FileDropComponent&#45;&gt;NgxChatModule -->
<g id="edge10" class="edge">
<title>FileDropComponent&#45;&gt;NgxChatModule</title>
<path fill="none" stroke="#000000" d="M546,-122.0225C546,-139.3734 546,-163 546,-163 546,-163 1032.7996,-163 1032.7996,-163"/>
<polygon fill="#000000" stroke="#000000" points="1032.7997,-166.5001 1042.7996,-163 1032.7996,-159.5001 1032.7997,-166.5001"/>
</g>
<!-- LinksDirective -->
<g id="node11" class="node">
<title>LinksDirective</title>
<polygon fill="#ffffb3" stroke="#000000" points="461.9706,-122 362.0294,-122 362.0294,-86 461.9706,-86 461.9706,-122"/>
<text text-anchor="middle" x="412" y="-99.8" font-family="Times,serif" font-size="14.00" fill="#000000">LinksDirective</text>
</g>
<!-- LinksDirective&#45;&gt;NgxChatModule -->
<g id="edge11" class="edge">
<title>LinksDirective&#45;&gt;NgxChatModule</title>
<path fill="none" stroke="#000000" d="M412,-122.2222C412,-140.8285 412,-167 412,-167 412,-167 1032.7324,-167 1032.7324,-167"/>
<polygon fill="#000000" stroke="#000000" points="1032.7324,-170.5001 1042.7324,-167 1032.7324,-163.5001 1032.7324,-170.5001"/>
</g>
<!-- RosterContactComponent -->
<g id="node12" class="node">
<title>RosterContactComponent</title>
<polygon fill="#ffffb3" stroke="#000000" points="343.927,-122 182.073,-122 182.073,-86 343.927,-86 343.927,-122"/>
<text text-anchor="middle" x="263" y="-99.8" font-family="Times,serif" font-size="14.00" fill="#000000">RosterContactComponent</text>
</g>
<!-- RosterContactComponent&#45;&gt;NgxChatModule -->
<g id="edge12" class="edge">
<title>RosterContactComponent&#45;&gt;NgxChatModule</title>
<path fill="none" stroke="#000000" d="M263,-122.308C263,-142.1455 263,-171 263,-171 263,-171 1032.8904,-171 1032.8904,-171"/>
<polygon fill="#000000" stroke="#000000" points="1032.8904,-174.5001 1042.8904,-171 1032.8904,-167.5001 1032.8904,-174.5001"/>
</g>
<!-- RosterListComponent -->
<g id="node13" class="node">
<title>RosterListComponent</title>
<polygon fill="#ffffb3" stroke="#000000" points="163.6582,-122 24.3418,-122 24.3418,-86 163.6582,-86 163.6582,-122"/>
<text text-anchor="middle" x="94" y="-99.8" font-family="Times,serif" font-size="14.00" fill="#000000">RosterListComponent</text>
</g>
<!-- RosterListComponent&#45;&gt;NgxChatModule -->
<g id="edge13" class="edge">
<title>RosterListComponent&#45;&gt;NgxChatModule</title>
<path fill="none" stroke="#000000" d="M94,-122.2843C94,-143.3211 94,-175 94,-175 94,-175 1032.9496,-175 1032.9496,-175"/>
<polygon fill="#000000" stroke="#000000" points="1032.9496,-178.5001 1042.9496,-175 1032.9495,-171.5001 1032.9496,-178.5001"/>
</g>
<!-- ChatComponent  -->
<g id="node15" class="node">
<title>ChatComponent </title>
<polygon fill="#fb8072" stroke="#000000" points="1631.7745,-252 1520.2255,-252 1520.2255,-216 1631.7745,-216 1631.7745,-252"/>
<text text-anchor="middle" x="1576" y="-229.8" font-family="Times,serif" font-size="14.00" fill="#000000">ChatComponent </text>
</g>
<!-- NgxChatModule&#45;&gt;ChatComponent  -->
<g id="edge14" class="edge">
<title>NgxChatModule&#45;&gt;ChatComponent </title>
<path fill="none" stroke="#000000" stroke-dasharray="5,2" d="M1153.2834,-179C1275.1809,-179 1556.314,-179 1556.314,-179 1556.314,-179 1556.314,-205.9909 1556.314,-205.9909"/>
<polygon fill="#000000" stroke="#000000" points="1552.8141,-205.9909 1556.314,-215.9909 1559.8141,-205.991 1552.8141,-205.9909"/>
</g>
<!-- ChatMessageInputComponent  -->
<g id="node16" class="node">
<title>ChatMessageInputComponent </title>
<polygon fill="#fb8072" stroke="#000000" points="1501.8031,-252 1312.1969,-252 1312.1969,-216 1501.8031,-216 1501.8031,-252"/>
<text text-anchor="middle" x="1407" y="-229.8" font-family="Times,serif" font-size="14.00" fill="#000000">ChatMessageInputComponent </text>
</g>
<!-- NgxChatModule&#45;&gt;ChatMessageInputComponent  -->
<g id="edge15" class="edge">
<title>NgxChatModule&#45;&gt;ChatMessageInputComponent </title>
<path fill="none" stroke="#000000" stroke-dasharray="5,2" d="M1153.2657,-183C1228.5673,-183 1354.1517,-183 1354.1517,-183 1354.1517,-183 1354.1517,-205.8757 1354.1517,-205.8757"/>
<polygon fill="#000000" stroke="#000000" points="1350.6517,-205.8757 1354.1517,-215.8757 1357.6517,-205.8757 1350.6517,-205.8757"/>
</g>
<!-- ChatMessageListComponent  -->
<g id="node17" class="node">
<title>ChatMessageListComponent </title>
<polygon fill="#fb8072" stroke="#000000" points="1294.0302,-252 1111.9698,-252 1111.9698,-216 1294.0302,-216 1294.0302,-252"/>
<text text-anchor="middle" x="1203" y="-229.8" font-family="Times,serif" font-size="14.00" fill="#000000">ChatMessageListComponent </text>
</g>
<!-- NgxChatModule&#45;&gt;ChatMessageListComponent  -->
<g id="edge16" class="edge">
<title>NgxChatModule&#45;&gt;ChatMessageListComponent </title>
<path fill="none" stroke="#000000" stroke-dasharray="5,2" d="M1132.517,-187.1061C1132.517,-187.1061 1132.517,-205.991 1132.517,-205.991"/>
<polygon fill="#000000" stroke="#000000" points="1129.0171,-205.9909 1132.517,-215.991 1136.0171,-205.991 1129.0171,-205.9909"/>
</g>
<!-- ChatRoomMessagesComponent  -->
<g id="node18" class="node">
<title>ChatRoomMessagesComponent </title>
<polygon fill="#fb8072" stroke="#000000" points="1093.9236,-252 894.0764,-252 894.0764,-216 1093.9236,-216 1093.9236,-252"/>
<text text-anchor="middle" x="994" y="-229.8" font-family="Times,serif" font-size="14.00" fill="#000000">ChatRoomMessagesComponent </text>
</g>
<!-- NgxChatModule&#45;&gt;ChatRoomMessagesComponent  -->
<g id="edge17" class="edge">
<title>NgxChatModule&#45;&gt;ChatRoomMessagesComponent </title>
<path fill="none" stroke="#000000" stroke-dasharray="5,2" d="M1068.4564,-187.1061C1068.4564,-187.1061 1068.4564,-205.991 1068.4564,-205.991"/>
<polygon fill="#000000" stroke="#000000" points="1064.9564,-205.9909 1068.4564,-215.991 1071.9564,-205.991 1064.9564,-205.9909"/>
</g>
<!-- FileDropComponent  -->
<g id="node19" class="node">
<title>FileDropComponent </title>
<polygon fill="#fb8072" stroke="#000000" points="875.8785,-252 740.1215,-252 740.1215,-216 875.8785,-216 875.8785,-252"/>
<text text-anchor="middle" x="808" y="-229.8" font-family="Times,serif" font-size="14.00" fill="#000000">FileDropComponent </text>
</g>
<!-- NgxChatModule&#45;&gt;FileDropComponent  -->
<g id="edge18" class="edge">
<title>NgxChatModule&#45;&gt;FileDropComponent </title>
<path fill="none" stroke="#000000" stroke-dasharray="5,2" d="M1042.8419,-183C970.0006,-183 850.848,-183 850.848,-183 850.848,-183 850.848,-205.8757 850.848,-205.8757"/>
<polygon fill="#000000" stroke="#000000" points="847.3481,-205.8757 850.848,-215.8757 854.3481,-205.8757 847.3481,-205.8757"/>
</g>
<!-- LinksDirective  -->
<g id="node20" class="node">
<title>LinksDirective </title>
<polygon fill="#fb8072" stroke="#000000" points="722.9717,-252 619.0283,-252 619.0283,-216 722.9717,-216 722.9717,-252"/>
<text text-anchor="middle" x="671" y="-229.8" font-family="Times,serif" font-size="14.00" fill="#000000">LinksDirective </text>
</g>
<!-- NgxChatModule&#45;&gt;LinksDirective  -->
<g id="edge19" class="edge">
<title>NgxChatModule&#45;&gt;LinksDirective </title>
<path fill="none" stroke="#000000" stroke-dasharray="5,2" d="M1042.8866,-179C928.6141,-179 676.4266,-179 676.4266,-179 676.4266,-179 676.4266,-205.9909 676.4266,-205.9909"/>
<polygon fill="#000000" stroke="#000000" points="672.9266,-205.9909 676.4266,-215.9909 679.9266,-205.991 672.9266,-205.9909"/>
</g>
</g>
</svg>
